/* XPM */
static char *_266fbe467eb442dd886bbcce90ef5813vQwZQ8SQdQnb0vv[] = {
/* columns rows colors chars-per-pixel */
"64 64 159 2 ",
"   c #0A141C",
".  c #121B23",
"X  c #1F2931",
"o  c #23232A",
"O  c #252B2C",
"+  c #3D3227",
"@  c #392F35",
"#  c #2C3233",
"$  c #283138",
"%  c #373035",
"&  c #3D3538",
"*  c #3E3A3B",
"=  c #4D3727",
"-  c #403929",
";  c #4D3B2C",
":  c #503827",
">  c #533F2A",
",  c #413B3B",
"<  c #4F3F39",
"1  c #5F3F38",
"2  c #53402A",
"3  c #44443E",
"4  c #534734",
"5  c #51463C",
"6  c #5F433A",
"7  c #544D3F",
"8  c #634837",
"9  c #654934",
"0  c #675036",
"q  c #513E42",
"w  c #2C4457",
"e  c #2E4659",
"r  c #444444",
"t  c #444548",
"y  c #454A49",
"u  c #4F4C4D",
"i  c #524344",
"p  c #544E40",
"a  c #524C4E",
"s  c #5E4F4B",
"d  c #52524F",
"f  c #5F514C",
"g  c #545452",
"h  c #545959",
"j  c #63484B",
"k  c #65554F",
"l  c #645D51",
"z  c #6B6656",
"x  c #465B6C",
"c  c #536777",
"v  c #556978",
"b  c #666663",
"n  c #AA562D",
"m  c #A4592E",
"M  c #AA5B2F",
"N  c #BA5D2E",
"B  c #AF6331",
"V  c #B06332",
"C  c #BF6939",
"Z  c #CE652F",
"A  c #D0652F",
"S  c #C16530",
"D  c #C26B33",
"F  c #C06839",
"G  c #D16731",
"H  c #D56E33",
"J  c #D36A39",
"K  c #C77436",
"L  c #D57334",
"P  c #D7733E",
"I  c #A26C6C",
"U  c #BA786E",
"Y  c #BA7B74",
"T  c #B1747C",
"R  c #BB7B79",
"E  c #D56E43",
"W  c #D47345",
"Q  c #D67B40",
"!  c #D97B43",
"~  c #D67B48",
"^  c #BB843E",
"/  c #CD8D3F",
"(  c #CD903F",
")  c #B78940",
"_  c #BE8D41",
"`  c #BB827A",
"'  c #AD9D7D",
"]  c #CE9040",
"[  c #C99246",
"{  c #CF9843",
"}  c #D19847",
"|  c #D49A44",
" . c #D99D45",
".. c #E59742",
"X. c #E59C44",
"o. c #E7A346",
"O. c #EBA547",
"+. c #E5A14E",
"@. c #EDAC4A",
"#. c #E8A850",
"$. c #EDAE59",
"%. c #EFB255",
"&. c #EEB55C",
"*. c #F0B65D",
"=. c #C9827F",
"-. c #E18A7A",
";. c #E5937D",
":. c #C4A67D",
">. c #D2AE7E",
",. c #9EA7AE",
"<. c #A0A7AE",
"1. c #A2A9AE",
"2. c #AEB6BC",
"3. c #AFB8BF",
"4. c #CC8581",
"5. c #CD8C83",
"6. c #D08782",
"7. c #D08C84",
"8. c #D09387",
"9. c #D29688",
"0. c #E38E84",
"q. c #E49483",
"w. c #E5938E",
"e. c #E79490",
"r. c #E89690",
"t. c #E69B91",
"y. c #E99C92",
"u. c #C5A687",
"i. c #C3A987",
"p. c #C5A688",
"a. c #C3AC88",
"s. c #C5B18A",
"d. c #C8B48C",
"f. c #D5B781",
"g. c #D5B28F",
"h. c #D7BB8A",
"j. c #DBBF8C",
"k. c #D5B791",
"l. c #D9B592",
"z. c #D7BD93",
"x. c #DABD96",
"c. c #E7A192",
"v. c #E9A293",
"b. c #DBC396",
"n. c #DEC699",
"m. c #EFC38E",
"M. c #EFCB93",
"N. c #EDC69F",
"B. c #F3CD92",
"V. c #F1C49F",
"C. c #F0C99D",
"Z. c #F4D194",
"A. c #F3D39B",
"S. c #EFCDA2",
"D. c #F2CAA1",
"F. c #F3D2A4",
"G. c #F5D9A6",
"H. c #BCC3C9",
"J. c #BDC4CA",
/* pixels */
"e e e e e e e e e e e e e e e e e e e e e e e e e e e e e e e e e e e e e e e e e e e e e e e e e e e e e e e e e e e e e e e e ",
"e e e e e e e e e e e e e e e e e e e e e e e e e e e e e e e e e e e e e e e e e e e e e e e e e e e e e e e e e e e e e e e e ",
"e e e e e e e e e e e e e e e e e e e e e e e e e e e e e e e e e e e e e e e e e e e e e e e e e e e e e e e e e e e e e e e e ",
"e e e e e e e e e e e e e e e e e e e e e e e e e e e e e e e e e e e e e e e e e e e e e e e e e e e e e e e e e e e e e e e e ",
"e e e e e e e e e e e e e e e e e e e e e e e e e e e e e e e e e e e e e e e e e e e e e e e e e e e e e e e e e e e e e e e e ",
"e e e e e e e e e e e e e e e e e e e e e e e e e e e e e e e e e e e e e e e e e e e e e e e e e e e e e e e e e e e e e e e e ",
"e e e e e e e e e e e e e e e e e e e e e e e e e e e e e e e e e e e e e e e e e e e e e e e e e e e e e e e e e e e e e e e e ",
"e e e e e e e e e e e e e e e e e e e e e e e e e e e e e e e e e e e e e e e e e e e e e e e e e e e e e e e e e e e e e e e e ",
"e e e e e e e e e e e e e e e e e e e e e e e e e e e e e e e e e e e e e e e e e e e e e e e e e e e e e e e e e e e e e e e e ",
"e e e e e e e e e e e e e e e e e e e e e e e e e e e e e e e e e e e e e e e e e e e e e e e e e e e e e e e e e e e e e e e e ",
"e e e e e e e e e e e e e e e e e e e e e e e e e e e e e e e e e e e e e e e e e e e e e e e e e e e e e e e e e e e e e e e e ",
"e e e e e e e e e e e e e e e e e e e e e e e e e e e e e e e e e e e e e e e e e e e e e e e e e e e e e e e e e e e e e e e e ",
"e e e e e e e e e e e e e e e e e e e e e e e e e e e e e e e e e e e e e e e e e e e e e e e e e e e e e e e e e e e e e e e e ",
"e e e e e e e e e e e e e e e e e e e e e e e e e e e e e e e e e e e e e e e e e e e e e e e e e e e e e e e e e e e e e e e e ",
"e e e e e e e e e e e e e e e e e e e e e e e w w w e e e e e e e e e e e e w w w e e e e e e e e e e e e e e e e e e e e e e e ",
"e e e e e e e e e e e e e e e e e e e e e e e x x x e e e e e e e e e e e e x x x e e e e e e e e e e e e e e e e e e e e e e e ",
"e e e e e e e e e e e e e e e e e e e e e e c 2.J.2.c e e e e e e e e e e c 2.J.2.c e e e e e e e e e e e e e e e e e e e e e e ",
"e e e e e e e e e e e e e e e e e e e e e c <.a 3 g <.c e e e e e e e e c ,.a 3 g <.c e e e e e e e e e e e e e e e e e e e e e ",
"e e e e e e e e e e e e e e e e e e e w x 3.a m ^ ^ l ,.c e e e e e e c ,.f n ^ ) g 3.x w e e e e e e e e e e e e e e e e e e e ",
"e e e e e e e e e e e e e e e e e e e e v 2.< n 9 V ^ l ,.c e w w e c ,.f n n 9 ^ 7 2.v e e e e e e e e e e e e e e e e e e e e ",
"e e e e e e e e e e e e e e e e e e w x 3.u n W Y 6 B ^ l ,.v x x v ,.f n n 6 Y ~ ^ d 2.x w e e e e e e e e e e e e e e e e e e ",
"e e e e e e e e e e e e e e e e e e e v 2.5 C m.C.` 1 V ^ l 2.J.J.2.s n n 8 d.C.;.F 5 2.v e e e e e e e e e e e e e e e e e e e ",
"e e e e e e e e e e e e e e e e e w x 2.g ^ Q C.F.t.I ; | [ 7 3 3 5 V N ; ' G.F.q.P ^ g 2.x w e e e e e e e e e e e e e e e e e ",
"e e e e e e e e e e e e e e e e e w x J.3 / ! M.x.` < - | @.| { | | X.D + 7 s.x.q.P ( 3 J.x w e e e e e e e e e e e e e e e e e ",
"e e e e e e e e e e e e e e e e e w x H.3 / Q :.p 4 _ | @.@.@.@.@.@.@.o.| _ 4 5 U Q ( 3 H.x w e e e e e e e e e e e e e e e e e ",
"e e e e e e e e e e e e e e e e e w x H.3 ( D 9 _ | @.@.@.@.@.@.@.@.@.@.@.@.| _ 0 | | 3 H.x w e e e e e e e e e e e e e e e e e ",
"e e e e e e e e e e e e e e e e e w x J.3 ] H S o.@.@.@.@.@.@.@.@.@.@.@.@.@.@.@.| @.| 3 J.x w e e e e e e e e e e e e e e e e e ",
"e e e e e e e e e e e e e e e e e w x 2.g ^ L H O.@.| | @.@.@.@.@.@.@.o.| | @.@.@.@._ g 2.x w e e e e e e e e e e e e e e e e e ",
"e e e e e e e e e e e e e e e e e e e v 2.7 / L ] _ ; >  .@.@.@.@.@.O.K : ; _ | @.| 7 2.v e e e e e e e e e e e e e e e e e e e ",
"e e e e e e e e e e e e e e e e e e e v 2.7 / D = = M D #.%.%.%.%.%.%.+.D M = 2  .| 7 2.v e e e e e e e e e e e e e e e e e e e ",
"e e e e e e e e e e e e e e e e e w x 2.g ^ L Z N D X.$.m.j.h.h.h.h.j.M.$.X.D D o.@._ g 2.x w e e e e e e e e e e e e e e e e e ",
"e e e e e e e e e e e e e e e e e w x J.3 ( H A H ..&.B.9.* O # t t r b.Z.&.O.O.@.@.| 3 J.x w e e e e e e e e e e e e e e e e e ",
"e e e e e e e e e e e e e e e e e w x H.r [ L A G ~ m.F.7.@   X 1.1.d b.G.Z.&.@.@.@.} r H.x w e e e e e e e e e e e e e e e e e ",
"e e e e e e e e e e e e e e e e e w x H.y >.~ A J -.v.D.c.` % . $ g d.G.G.G.B.%.@.*.f.y H.x w e e e e e e e e e e e e e e e e e ",
"e e e e e e e e e e e e e e e e e w x H.y k.q.E W 0.t.D.F.D.` o O a.G.G.G.G.A.&.&.Z.z.y H.x w e e e e e e e e e e e e e e e e e ",
"e e e e e e e e e e e e e e e e e w x H.y k.y.0.0.6.w.v.D.D.5.o O b.G.G.G.G.n.A.A.G.z.y H.x w e e e e e e e e e e e e e e e e e ",
"e e e e e e e e e e e e e e e e e w x H.y k.y.e.6.j R w.y.t.R @ & s.G.G.G.d.z n.G.G.b.y H.x w e e e e e e e e e e e e e e e e e ",
"e e e e e e e e e e e e e e e e e w x 2.h i.c.w.w.R j Y 4.Y j R R k s.b.a.l s.G.G.G.s.h 2.x w e e e e e e e e e e e e e e e e e ",
"e e e e e e e e e e e e e e e e e e e v 2.g l.y.w.w.R q & q R w.w.R i , i T S.G.G.n.g 2.v e e e e e e e e e e e e e e e e e e e ",
"e e e e e e e e e e e e e e e e e e w x 2.h i.v.w.w.w.4.5.5.t.y.y.t.5.5.8.N.G.G.G.s.h 2.x w e e e e e e e e e e e e e e e e e e ",
"e e e e e e e e e e e e e e e e e e e e c <.b u.c.w.w.y.V.F.F.F.F.F.F.F.F.G.G.G.d.b <.c e e e e e e e e e e e e e e e e e e e e ",
"e e e e e e e e e e e e e e e e e e e e e c ,.b p.c.w.w.v.D.F.G.G.G.G.G.G.G.G.d.b ,.c e e e e e e e e e e e e e e e e e e e e e ",
"e e e e e e e e e e e e e e e e e e e e e e c ,.b u.v.y.w.t.v.D.F.F.F.F.F.F.d.b ,.c e e e e e e e e e e e e e e e e e e e e e e ",
"e e e e e e e e e e e e e e e e e e e e e e e c ,.b i.l.c.y.r.y.y.y.y.t.7.` b ,.c e e e e e e e e e e e e e e e e e e e e e e e ",
"e e e e e e e e e e e e e e e e e e e e e e e e c <.h g i.g.5.=.=.=.4.R a g ,.c e e e e e e e e e e e e e e e e e e e e e e e e ",
"e e e e e e e e e e e e e e e e e e e e e e e e e c 2.2.h y t r r r r g 2.3.c e e e e e e e e e e e e e e e e e e e e e e e e e ",
"e e e e e e e e e e e e e e e e e e e e e e e e e e x v 2.H.H.H.H.H.J.2.v x e e e e e e e e e e e e e e e e e e e e e e e e e e ",
"e e e e e e e e e e e e e e e e e e e e e e e e e e w e x x x x x x x x e w e e e e e e e e e e e e e e e e e e e e e e e e e e ",
"e e e e e e e e e e e e e e e e e e e e e e e e e e e e w w w w w w w w e e e e e e e e e e e e e e e e e e e e e e e e e e e e ",
"e e e e e e e e e e e e e e e e e e e e e e e e e e e e e e e e e e e e e e e e e e e e e e e e e e e e e e e e e e e e e e e e ",
"e e e e e e e e e e e e e e e e e e e e e e e e e e e e e e e e e e e e e e e e e e e e e e e e e e e e e e e e e e e e e e e e ",
"e e e e e e e e e e e e e e e e e e e e e e e e e e e e e e e e e e e e e e e e e e e e e e e e e e e e e e e e e e e e e e e e ",
"e e e e e e e e e e e e e e e e e e e e e e e e e e e e e e e e e e e e e e e e e e e e e e e e e e e e e e e e e e e e e e e e ",
"e e e e e e e e e e e e e e e e e e e e e e e e e e e e e e e e e e e e e e e e e e e e e e e e e e e e e e e e e e e e e e e e ",
"e e e e e e e e e e e e e e e e e e e e e e e e e e e e e e e e e e e e e e e e e e e e e e e e e e e e e e e e e e e e e e e e ",
"e e e e e e e e e e e e e e e e e e e e e e e e e e e e e e e e e e e e e e e e e e e e e e e e e e e e e e e e e e e e e e e e ",
"e e e e e e e e e e e e e e e e e e e e e e e e e e e e e e e e e e e e e e e e e e e e e e e e e e e e e e e e e e e e e e e e ",
"e e e e e e e e e e e e e e e e e e e e e e e e e e e e e e e e e e e e e e e e e e e e e e e e e e e e e e e e e e e e e e e e ",
"e e e e e e e e e e e e e e e e e e e e e e e e e e e e e e e e e e e e e e e e e e e e e e e e e e e e e e e e e e e e e e e e ",
"e e e e e e e e e e e e e e e e e e e e e e e e e e e e e e e e e e e e e e e e e e e e e e e e e e e e e e e e e e e e e e e e ",
"e e e e e e e e e e e e e e e e e e e e e e e e e e e e e e e e e e e e e e e e e e e e e e e e e e e e e e e e e e e e e e e e ",
"e e e e e e e e e e e e e e e e e e e e e e e e e e e e e e e e e e e e e e e e e e e e e e e e e e e e e e e e e e e e e e e e ",
"e e e e e e e e e e e e e e e e e e e e e e e e e e e e e e e e e e e e e e e e e e e e e e e e e e e e e e e e e e e e e e e e ",
"e e e e e e e e e e e e e e e e e e e e e e e e e e e e e e e e e e e e e e e e e e e e e e e e e e e e e e e e e e e e e e e e "
};
