/* XPM */
static char *_cd9419d41204afbb4529a271dcda1b8DauSreakhV3APnr9[] = {
/* columns rows colors chars-per-pixel */
"64 64 185 2 ",
"   c #3B3713",
".  c #222222",
"X  c #27343A",
"o  c #28333A",
"O  c #29353B",
"+  c #4E4814",
"@  c #514B25",
"#  c #514E3D",
"$  c #67633F",
"%  c #223946",
"&  c #273A45",
"*  c #1E4054",
"=  c #324047",
"-  c #35454C",
";  c #224457",
":  c #384951",
">  c #3E515A",
",  c #3C5C6E",
"<  c #375E74",
"1  c #3A6176",
"2  c #41555F",
"3  c #696440",
"4  c #7D7752",
"5  c #465C67",
"6  c #465D67",
"7  c #416273",
"8  c #516A75",
"9  c #546E7A",
"0  c #56717D",
"q  c #B71C1B",
"w  c #BA1E1E",
"e  c #BF301F",
"r  c #B81F20",
"t  c #BE2121",
"y  c #A62F37",
"u  c #AB2E35",
"i  c #B12E34",
"p  c #A73037",
"a  c #AD3136",
"s  c #AC3238",
"d  c #B43236",
"f  c #B43438",
"g  c #BB3538",
"h  c #C1271F",
"j  c #C32525",
"k  c #C92826",
"l  c #C62828",
"z  c #CC2B2B",
"x  c #D52D29",
"c  c #D22D2C",
"v  c #C43522",
"b  c #C73823",
"n  c #D4302E",
"m  c #DA322F",
"M  c #DA3330",
"N  c #E3372E",
"B  c #E3382F",
"V  c #E8382D",
"C  c #E13733",
"Z  c #E63B31",
"A  c #ED3D32",
"S  c #B3583D",
"D  c #C84423",
"F  c #D0502A",
"G  c #F34236",
"H  c #963C4B",
"J  c #9C3E4B",
"K  c #A13E4A",
"L  c #9F404C",
"P  c #8D4B5E",
"I  c #A5414B",
"U  c #AB434C",
"Y  c #954F61",
"T  c #B7A92C",
"R  c #D69D2C",
"E  c #D5B632",
"W  c #EEB02F",
"Q  c #EAB732",
"!  c #F1B832",
"~  c #D1C135",
"^  c #E8C835",
"/  c #F2C333",
"(  c #E7D337",
")  c #ECDA3D",
"_  c #FAD736",
"`  c #FAE639",
"'  c #FEEB3A",
"]  c #DED24E",
"[  c #E4CB49",
"{  c #E6E551",
"}  c #CFD560",
"|  c #0E5D96",
" . c #01579B",
".. c #025A9D",
"X. c #015DA2",
"o. c #0161A6",
"O. c #0B6AA3",
"+. c #0664A8",
"@. c #056EAD",
"#. c #146EA8",
"$. c #016EB3",
"%. c #096CB0",
"&. c #0B77B4",
"*. c #0575B9",
"=. c #0176BC",
"-. c #4C7285",
";. c #42738C",
":. c #5A7683",
">. c #5D7987",
",. c #5E7B89",
"<. c #617E8C",
"1. c #657398",
"2. c #017DC4",
"3. c #0A7EC2",
"4. c #1581BC",
"5. c #64808E",
"6. c #748C99",
"7. c #7A929D",
"8. c #5783AF",
"9. c #5586B2",
"0. c #6F8FB3",
"q. c #62ACB9",
"w. c #0A83C5",
"e. c #0183CC",
"r. c #1388CA",
"t. c #0187D0",
"y. c #0188D1",
"u. c #0B8FD5",
"i. c #1697DB",
"p. c #2B8BC6",
"a. c #2D8BC5",
"s. c #269DDB",
"d. c #37A5DE",
"f. c #39A3DC",
"g. c #03A9F4",
"h. c #0BABF3",
"j. c #15AEF4",
"k. c #1BAFF3",
"l. c #1CB1F5",
"z. c #36A6E0",
"x. c #37A9E3",
"c. c #3FB9E1",
"v. c #3DB4EC",
"b. c #27B6F7",
"n. c #29B6F6",
"m. c #2EB8F6",
"M. c #27B7F8",
"N. c #26B8F9",
"B. c #34BAF6",
"V. c #3CBCF6",
"C. c #35BBF8",
"Z. c #3EBFF8",
"A. c #4B8FC0",
"S. c #4795C7",
"D. c #4993C5",
"F. c #4598CB",
"G. c #659DC6",
"H. c #4EA9CA",
"J. c #47A9DD",
"K. c #54ACDC",
"L. c #5BAEDC",
"P. c #42BBDF",
"I. c #59B1DF",
"U. c #64A1CB",
"Y. c #50AFE0",
"T. c #41B5EC",
"R. c #43B9EB",
"E. c #59B2E2",
"W. c #41BAF2",
"Q. c #44BEF6",
"!. c #46C0F6",
"~. c #4DC2F6",
"^. c #45C1F8",
"/. c #4EC4F9",
"(. c #56C4F6",
"). c #78D1FA",
"_. c #899EA9",
"`. c #8EA2AC",
"'. c #90A4AE",
"]. c #83D4FA",
"[. c #8BD7FA",
"{. c #8ED8FA",
"}. c #91D9FA",
"|. c #9DDDFB",
" X c #C9ECFC",
/* pixels */
"- : : - - - O > 5 8 8 9 :.8 5 8 0 ,.5.6.7._.6.<.,.<.6.6.7._.`.'.'.`._.7.6.6.<.,.<.6._.7.6.5.,.0 8 5 8 :.9 8 8 5 > O - - - : : - ",
": 2 2 : : - O & > 5 5 8 8 7 5 8 9 >.<.5.6.6.5.<.,.,.5.6.7.7._.`.`._.7.7.6.5.,.,.<.5.6.6.5.<.>.9 8 5 7 8 8 5 5 > & O - : : 2 2 : ",
": 2 2 : > : - X O > 5 , 1 #.1 5 8 0 ,.<.<.<.<.<.,.:.,.5.6.6.7.7.7.7.6.6.5.,.:.,.<.<.<.<.<.,.0 8 5 1 #.1 , 5 > & X - : > : 2 2 : ",
"- : : - : - - X o O ; O.%.$.O., 8 9 >.,.,.,.,.<.,.,.,.<.<.5.6.6.6.6.5.<.<.,.,.,.<.,.,.,.,.,.9 8 , O.$.%.O.; O o X - - : - : : - ",
"O - - - - O o X % * O.=.o.X..., 5 8 0 >.,.,.<.<.,.>.0 >.,.<.<.<.<.<.<.,.>.0 >.,.<.<.,.,.>.0 8 5 , ..X.o.=.O.* % X o O - - - - O ",
"o O = O X % % * O.@.=.=.$.$.X.| < 5 8 9 0 >.,.,.>.0 9 -.,.,.,.,.,.,.,.,.-.9 0 >.,.,.>.0 9 8 5 < | X.$.$.=.=.@.O.* % % X O = O o ",
"% % % % * O.@.@.=.2.=.o.o.+.2.e.&.1 1 5 8 9 9 9 -.-.;.4.;.0 >.,.,.>.0 ;.4.;.-.-.9 9 9 8 5 1 1 &.e.2.+.o.o.=.=.=.@.@.O.* % % % % ",
"@.@.@.@.@.=.=.=.=.e.e.e.e.e.t.y.t.w.&.1 1 1 7 ;.4.w.w.e.4.;.-.-.-.-.;.4.e.w.w.4.;.7 1 1 1 &.w.t.y.t.e.e.e.e.e.=.=.=.=.@.@.@.@.@.",
"=.=.=.=.=.=.=.=.=.2.e.2.e.y.y.t.y.y.t.w.w.w.w.w.t.y.y.y.t.w.w.w.w.w.w.t.y.y.y.t.w.w.w.w.w.t.y.y.t.y.e.2.e.2.2.=.=.=.=.=.=.=.=.=.",
"=.=.=.=.=.=.=.2.e.e.t.e.y.y.t.y.y.t.y.y.y.y.y.y.y.y.y.y.y.y.y.y.y.y.y.y.y.y.y.y.y.y.y.y.y.y.t.y.t.y.y.e.t.e.e.2.=.=.=.=.=.=.=.=.",
"=.=.=.=.$.X...o.2.e.e.e.e.t.y.y.y.y.y.y.t.t.t.t.t.t.t.t.t.t.t.t.t.t.t.t.t.t.t.t.t.t.t.y.y.y.y.y.y.t.e.e.e.e.2.o...X.$.=.=.=.=.=.",
"=.=.=.o... . . .X.o.@.2.$.e.y.t.t.t.t.t.y.u.u.u.u.u.u.u.u.u.u.u.u.u.u.u.u.u.u.u.u.u.y.t.t.t.t.t.y.e.$.2.@.o.X. . . ...o.=.=.=.=.",
"=.=.=.$.X... . .X.=.2.e.e.e.y.u.u.u.u.u.i.v.W.W.W.W.W.W.W.W.W.W.W.W.W.W.W.W.W.W.W.v.i.u.u.u.u.u.y.e.e.e.2.=... . ...X.$.=.=.=.=.",
"=.=.=.=.=.$.X... .X.X.%.u.u.i.v.W.W.W.W.V.m.m.m.m.m.m.m.m.m.m.m.m.m.m.m.m.m.m.m.m.m.V.W.W.W.W.v.i.u.u.%.X.X. ...X.$.=.=.=.=.=.=.",
"=.=.=.=.=.3.3.*.+.+.#.x.W.W.W.Q.B.B.m.m.V.V.B.n.n.n.n.n.n.n.n.n.n.n.n.n.n.n.n.n.B.V.V.m.m.B.B.Q.W.W.W.x.#.+.+.*.3.3.=.=.=.=.=.=.",
"=.3.w.3.r.v.W.W.T.T.T.!.!.B.m.m.B.(.B.Q.}.|.{.Q.n.n.n.n.n.n.n.n.n.n.n.n.n.n.n.Q.{.|.}.Q.B.(.B.m.m.B.!.!.T.T.T.T.W.v.r.3.w.w.3.=.",
"r.v.W.R.W.~.~.B.B.m.m.B.B.m.m.n.n.B.Q.{.[.[.}.}.Q.n.n.n.n.n.n.n.n.n.n.n.n.n.Q.}.}.[.[.{.Q.B.n.n.m.m.B.B.m.m.B.B.B.~.Q.R.W.W.v.r.",
"W.~.~.~.!.!.!.!.Q.n.n.Q.Q.Q.Q.m.b.B.}.[.].{. X}.{.B.n.n.n.n.n.n.n.n.n.n.n.B.{.}. X{.].[.}.B.b.m.Q.Q.Q.Q.n.n.Q.Q.Q.!.!.~.~.~.~.Q.",
"~.~.~.!.B.m.m.m.m.n.n.m.m.m.m.n.B.V.|.[.].].{.[.|.V.b.n.n.n.n.n.n.n.n.n.b.V.|.[.{.].].[.|.V.B.n.m.m.m.m.n.n.m.m.m.m.m.B.~.~.~.~.",
"~.~.~.~.!.B.m.m.n.n.n.n.B.n.n.B.(.Q.}.[.].].].[.}.B.n.n.n.n.n.n.n.n.n.n.n.B.}.[.].].].[.}.Q.(.B.n.n.B.n.n.n.n.n.m.m.B.!.~.~.~.~.",
"~.~.~.~.!.Q.Q.Q.m.n.n.B.).B.b.n.B.n.Q.{.[.[.[.{.Q.n.n.n.n.n.n.n.n.n.n.n.n.n.Q.{.[.[.[.{.Q.n.B.n.b.B.).B.n.n.n.m.Q.Q.Q.!.~.~.~.~.",
"~.~.~.~.B.B.m.m.n.n.n.n.B.m.B.B.n.n.n.Q.}.|.}.Q.B.n.n.n.n.n.n.n.n.n.n.n.n.n.B.Q.}.|.}.Q.n.n.n.B.B.m.B.n.n.n.n.n.m.m.B.B.~.~.~.~.",
"~.~.~.!.Q.Q.m.n.n.n.n.n.n.Q.}.}.Q.n.n.n.B.V.B.C.).C.b.b.b.b.n.n.n.n.n.n.n.B.).B.B.V.B.n.n.n.Q.}.}.Q.n.n.n.n.n.n.n.m.Q.Q.!.~.~.~.",
"~.~.~.B.B.m.n.m.m.n.n.n.B.}.[.[.}.B.b.n.n.b.n.d.J.f.f.f.f.f.d.n.n.n.n.n.n.n.C.n.b.b.b.n.n.B.}.[.[.}.B.n.n.n.n.m.m.n.m.B.B.!.~.~.",
"~.~.!.!.Q.n.m.Q.Q.m.n.n.B.}.[.[.}.B.b.n.n.n.F.J a s s s s s J F.n.n.n.b.n.d.f.d.n.n.n.n.b.B.}.[.[.}.B.n.n.n.m.Q.Q.m.n.Q.!.!.~.~.",
"~.~.B.m.m.n.n.m.m.n.n.n.n.Q.}.}.Q.m.B.n.b.z.J c A A A A A B z J d.N.n.z.S.L a J F.n.n.B.n.n.Q.}.}.Q.n.n.n.n.n.m.m.n.n.m.m.B.!.~.",
"~.!.Q.n.n.n.n.n.n.n.n.n.n.n.B.B.n.B.).B.n.S.u c A G G A M n k y f.z.S.L d Z A c J F.B.).B.b.n.B.B.n.n.n.n.n.n.n.n.n.n.n.n.Q.!.~.",
"~.B.B.m.n.m.n.n.n.n.n.n.n.n.B.n.n.B.B.n.d.J j c M A A c z j j y 9.J d Z A G A c j J d.C.m.B.n.n.B.n.n.n.n.n.n.n.n.n.m.n.m.B.B.!.",
"~.!.!.Q.B.V.m.n.n.n.n.n.n.B.(.B.Q.[.Q.n.f.y j l z b b v v v j r u j c A A A c l j y f.n.Q.].Q.B.(.B.n.n.n.n.n.n.n.m.V.B.Q.!.!.~.",
"~.!.B.m.n.n.n.n.n.n.n.n.n.n.B.B.[.}.[.C.d.J j r D W / / / W D q w j c c b b v t j J d.C.[.}.[.B.B.n.n.n.n.n.n.n.n.n.n.n.m.B.!.~.",
"!.B.n.n.d.f.d.n.n.n.n.n.n.b.b.n.Q.[.Q.n.n.F.J F ! _ ' ' ' _ W D w j j D W / W F J F.n.n.Q.[.Q.n.n.n.n.n.n.n.n.n.n.d.f.d.n.n.B.!.",
"m.n.n.F.L a L F.n.n.n.n.n.n.n.B.m.B.n.n.n.n.H.[ _ ( ( ` ' ' _ W e j D W _ ' _ [ q.n.n.n.n.B.m.B.n.n.n.n.n.n.n.n.F.L a L F.n.n.m.",
"n.b.d.J N V B I F.n.n.n.n.n.B.).C.b.b.n.n.b.R.] ( @   E ` ( ( / v D ! _ ` ( ( ` } c.b.n.n.b.C.).C.n.n.n.n.n.n.F.I B V N J d.b.n.",
"n.b.z.J z d n B L d.n.n.n.b.m.J.f.f.d.n.n.b.P.{ ( # . + T   @ E F R ^ ` E   @ ( { P.b.n.n.d.f.J.d.n.b.n.n.n.d.L B n d z J z.b.n.",
"b.n.d.8.J 1.d V a f.b.n.n.z.S.L s s L F.n.b.P.{ ) 4 3 T + . # ^ Q @   T + . # ( { P.b.n.F.L s s L S.z.n.n.b.f.a V d 1.J 8.d.n.b.",
"d.F.J a t d n B L d.b.n.F.L d Z A A Z I F.b.P.{ ' ) ) ` ~ $ 4 ( ^ # . + T 3 4 ) { P.b.F.I Z A A Z d L F.n.b.d.L B n d t a J F.d.",
"p a z Z A V B I F.n.n.F.I Z A G A A A Z I F.P.] ' ' ' ' ' ) ) / Q 4 $ ~ ` ) ) ` ] P.F.I Z A A A G A Z I F.n.n.F.I B V A Z z a p ",
"j z c m Z d L F.n.b.d.L Z G A n f s f Z B L D.S / ' ' ' ' ' / D D E ) ` ' ' ' / S D.L B Z f s f n A G Z L d.b.n.F.L d Z m c z j ",
"j k z u L S.z.n.n.b.f.a A G m d 9.f.D.d x p A.y D ! _ _ _ ! D c c D ! _ _ _ ! D y A.p x d D.f.9.d m G A a f.b.n.n.z.S.L u z k j ",
"j u J S.z.n.b.n.n.N.z.L Z G G Z L x.z.J j J F.J l b v v b b n A A n b b v v b l J F.J j J z.x.L Z G G Z L z.N.n.n.b.n.z.S.J u j ",
"J D.z.n.N.b.b.n.d.f.f.9.g A G A d S.n.F.P F.n.F.K z z z N A A G G A A N z z z K F.n.F.P F.n.S.d A G A g 9.f.f.d.n.b.b.N.n.z.D.J ",
"d.n.n.d.f.f.d.S.L s s f Z G G A z J d.n.x.n.n.n.F.y w w j A C G G C A j w w y F.n.n.n.x.n.d.J z A G G Z f s s L S.d.f.f.d.n.n.d.",
"n.z.S.L s s s f Z A A A G G A m z J d.b.n.n.n.b.d.p k t z n A G G A n z t k p d.b.n.n.n.b.d.J z m A G G A A A Z f s s s L S.z.n.",
"D.J d Z A A A A G G G G A M c z K F.n.n.n.n.n.b.f.p c z c k A G G A k c z c p f.b.n.n.n.n.n.F.K z c M A G G G G A A A A Z d J D.",
"u z A G G G G G G A M n n c j J F.n.n.n.n.n.n.n.d.s N k A A G G G G A A k N s d.b.n.n.n.n.n.n.F.K j c n n M A G G G G G G A z u ",
"j c M A G A M n n c z j j u J F.n.b.n.n.n.n.n.n.S.f A A A G G G G G G A A A f S.n.n.n.n.n.n.b.n.F.J u j j z c n n M A G A M c j ",
"l z c n c x c k j u p y J F.d.d.f.d.n.b.n.n.n.d.L Z G A x A G G G G A x A G Z L d.n.n.n.b.n.d.f.d.d.F.J y p u j j z x c n c z l ",
"l j j j u p p y J S.d.f.d.n.F.J a J S.z.n.n.N.d.s A A G A G G G G G G A G A A s d.N.n.n.z.S.J a J F.n.d.f.d.S.J y p p u j j j l ",
"j j u J S.d.f.d.z.n.M.b.M.x.P n m M d J F.n.z.D.f V x A G G G G G G G G A x V f D.z.n.F.J d M m n P x.M.b.M.n.z.d.f.d.S.J u j j ",
"j J S.z.n.N.n.z.f.d.n.b.b.n.F.J d z m M I 9.J u Z G A G G G G G G G G G G A G Z u J 9.I m m z d J F.n.b.b.n.d.f.z.n.N.n.z.S.J j ",
"J F.n.M.n.z.S.L a L S.f.d.n.n.z.S.J c C M i l h A G G G G G G G G G G G G G G A h l i M C c J S.z.n.n.d.f.S.L a L S.z.n.M.n.F.J ",
"d.n.n.n.F.L d Z A Z f s L F.n.M.n.9.i c M j z j A G G G G G G G G G G G G G G A j z j M c i 9.n.M.n.F.L s f Z A Z d L F.n.n.n.d.",
"h.b.b.F.I Z A G G A V A Z I F.n.F.J r c c j z j A G G G G G G G G G G G G G G A j z j c c r J F.n.F.I Z A V A G G A Z I F.b.b.h.",
"g.h.p.I Z G G A n f g Z G Z L F.J z j z c z t c A G G G G G G G G G G G G G G A c t z c z t z J F.L Z G Z g f n A G G Z I p.h.g.",
"g.i.H Z G G G n I G.0.g A Z K 9.a c z t z z r c M G G G G G G G G G G G G G G M c t z z t z c a 9.K Z A g 0.G.I n G G G Z H i.g.",
"g.p.d A G G A d U.E.Y z c U 0.K z c z t z l w c A G G G G G G G G G G G G G G A n w l z t z c z K 0.U c z Y E.U.d A G G A d p.g.",
"i.H Z G G G Z L Y.~.U.I I U.L.a z z t z z j j A G G G G G G G G G G G G G G G G A j j z z t z z a L.U.I I U.~.Y.L Z G G G Z H i.",
"i.y n G G A f p.k.!.~.I.I.~.U.a j z t z j j A G G G m A G G G M M G G G A m G G G A j j z t z j a U.~.I.I.~.!.k.p.f A G G n y i.",
"a.p c A G A p s.Z.~.~././.E.I j j j t z j Z G G G Z j c G G A n n A G G c j B G G G Z j z t j j j I E././.~.~.Z.s.p A G A c p a.",
"y z c M A Z L J.^.!.~.!.^.L.a j j t z z j A G A n j j j A G n l l m G A j j j c A G A j z z t j j a L.!.!.~.!.^.J.L Z A M c z y ",
"j l z c c a p.j.j.l.Q.l.l.K.a j j w z j t A G m l w j j A A c w w c A A j j w l m G A t j z w j j a K.l.l.Q.l.j.j.p.a c c z l j ",
"l j l z z y i.C.V.Q.~.!.^.L.a j j w j j j A G n j w j j A M z w w z M A j j w j n G A j j j w j j a L.^.!.~.Q.V.C.i.y z z l j l ",
"l l j l j y p.h.j.V.Q.!./.L.a j j w j j Z G A c t j j j A n j q w j n A j j j t c A G Z j j w j j a L./.!.Q.V.j.h.p.y j l j l l ",
"l l l l j j H i.g.h.h.j.^.L.a j t j j j A G m l w j j h A n j q w j n A j j j w l m G A j j j t j a L.^.j.h.h.g.i.H j j l l l l "
};
