/* XPM */
static char *_23281c2362949adf7f36eab8ebea20cdJv9TENYbTL81kxa[] = {
/* columns rows colors chars-per-pixel */
"64 64 204 2 ",
"   c #07090B",
".  c #0A0C0D",
"X  c #190705",
"o  c #1E0C0B",
"O  c #1F1704",
"+  c #091319",
"@  c #131414",
"#  c #151718",
"$  c #17191A",
"%  c #1A1B1C",
"&  c #350F0C",
"*  c #221607",
"=  c #231906",
"-  c #22120B",
";  c #221B0B",
":  c #2A1D0A",
">  c #391B11",
",  c #321E1D",
"<  c #1F271D",
"1  c #382508",
"2  c #24291B",
"3  c #36381C",
"4  c #041923",
"5  c #0A1C25",
"6  c #151E22",
"7  c #1E2E23",
"8  c #1C262B",
"9  c #1F292E",
"0  c #062736",
"q  c #0A2B3A",
"w  c #1F2A31",
"e  c #152F3B",
"r  c #1C3835",
"t  c #232425",
"y  c #202A2E",
"u  c #2F2F2F",
"i  c #373C26",
"p  c #212B31",
"a  c #253137",
"s  c #293437",
"d  c #263238",
"f  c #29353B",
"g  c #353836",
"h  c #3C3D32",
"j  c #4D3B0A",
"k  c #26403A",
"l  c #3C4232",
"z  c #3A453F",
"x  c #53460B",
"c  c #674F06",
"v  c #4C482F",
"b  c #53482A",
"n  c #323E44",
"m  c #344047",
"M  c #3D4441",
"N  c #3B454B",
"B  c #434344",
"V  c #4A4B4B",
"C  c #45504B",
"Z  c #535454",
"A  c #5C5C5C",
"S  c #606060",
"D  c #6C6C6C",
"F  c #69757B",
"G  c #747474",
"H  c #7B7B7B",
"J  c #A92B25",
"K  c #B82F29",
"L  c #C7342C",
"P  c #D93B2F",
"I  c #AD730C",
"U  c #C94A17",
"Y  c #CB461A",
"T  c #DF4C1D",
"R  c #CA5413",
"E  c #DF5618",
"W  c #E45D16",
"Q  c #FF5D1E",
"!  c #C97402",
"~  c #C67C01",
"^  c #DF7706",
"/  c #E27D05",
"(  c #FD7C0D",
")  c #E26711",
"_  c #FF6D16",
"`  c #FF631C",
"'  c #FE6C1B",
"]  c #FF7313",
"[  c #FF7616",
"{  c #FF5622",
"}  c #FF5920",
"|  c #F24136",
" . c #3BAE76",
".. c #4AAE4D",
"X. c #4BAE51",
"o. c #56B358",
"O. c #44AE63",
"+. c #5CB664",
"@. c #45B073",
"#. c #68BB69",
"$. c #71BF72",
"%. c #B58C0B",
"&. c #AC9D26",
"*. c #CB8A0A",
"=. c #DE8402",
"-. c #D78609",
";. c #C99A0A",
":. c #D49D04",
">. c #E38A06",
",. c #FF8C06",
"<. c #FF840A",
"1. c #FD8808",
"2. c #E79506",
"3. c #FF9401",
"4. c #FF9900",
"5. c #FC9E0B",
"6. c #FF8713",
"7. c #FF9012",
"8. c #D8A20A",
"9. c #C5AC1E",
"0. c #E8A608",
"q. c #FFA401",
"w. c #FFA40C",
"e. c #FFAE08",
"r. c #E7B005",
"t. c #FDB405",
"y. c #FFBD05",
"u. c #FFB309",
"i. c #FAB808",
"p. c #C5AB25",
"a. c #FFC106",
"s. c #9CA862",
"d. c #0684BA",
"f. c #158CB8",
"g. c #3797A9",
"h. c #758289",
"j. c #4DB583",
"k. c #57B882",
"l. c #75C38E",
"z. c #0386C1",
"x. c #0589C3",
"c. c #198DC2",
"v. c #1292C5",
"b. c #0497DA",
"n. c #159DD9",
"m. c #2C94C3",
"M. c #12ABD2",
"N. c #29A3DB",
"B. c #33A6DA",
"V. c #07A8E1",
"C. c #0BA9E1",
"Z. c #07A9F3",
"A. c #03A9F4",
"S. c #14AEF4",
"D. c #1DB2F6",
"F. c #29B4E8",
"G. c #2EB6F4",
"H. c #34BAF6",
"J. c #479EC5",
"K. c #72BBDD",
"L. c #42BEF5",
"P. c #7CC0DF",
"I. c #56C4EA",
"U. c #49C2F7",
"Y. c #54C5F8",
"T. c #7AD1F7",
"R. c #828282",
"E. c #8D8D8D",
"W. c #899198",
"Q. c #939393",
"!. c #9A9A9A",
"~. c #A0A09F",
"^. c #92A0A7",
"/. c #A5A5A5",
"(. c #A2A8AA",
"). c #B2B2B2",
"_. c #BDBDBD",
"`. c #8ACA92",
"'. c #99D19B",
"]. c #9BD5B8",
"[. c #A9D8AA",
"{. c #B5D2C9",
"}. c #92D5EE",
"|. c #9ADDFB",
" X c #B9D5E2",
".X c #B3E3E7",
"XX c #B8E7FC",
"oX c #C8E8D6",
"OX c #D6EDD6",
"+X c #D8EDD8",
"@X c #CADBE4",
"#X c #C2E8E8",
"$X c #D5EEEA",
"%X c #C6EAFB",
"&X c #CBEDFD",
"*X c #D3EFFC",
"=X c #D9F2FD",
"-X c #E3F2E3",
";X c #ECF6ED",
":X c #E3F5FE",
">X c #E9F7F9",
",X c #F2F9F2",
"<X c #F4FBFC",
"1X c #FEFEFE",
/* pixels */
"d d d a a a d d d d d d d d d d d d d d d d d d d d d d d d d d d d d d d d d d d d w - E ,.4.4.4.3.3.<.Q Q ] ] 5.u.u.6.w.' ' 4.",
"d d a f n f a d d d d d d d d d d d d d d d d d d d d d d d d d d d d d d d d d d d w * ^ ,.3.4.4.3.] ` } { ` 6.w.u.y.y.y.u.e.q.",
"d d a n h.n a d d d d d d d d d d d d d d d d d d d d a a a d d d a d d a d d d d d w * =.3.4.4.3.<._ ` Q { { Q [ u.a.a.a.a.y.t.",
"d d a f n f a d d d d d d d d d d d d d d d d d d d a f N f a a h h h a d d a d d d p ; ! ,.,.3.1.] 1.1.] } { ` w.y.a.a.a.a.a.a.",
"d d d a a a d d d d a a a d d d d d d a a a d d d d a N (.N a b -.>.-.b h s d d d d a 9 1 W ` _ _ <.,.<.` } ` ' 6.u.a.a.a.a.a.y.",
"d d d d d d d d d a f N f a d d d d a f z f a d a d d f N f b -.4.4.4.2.*.h d d d a d w - E Q } } Q Q Q { } 6.5.w.7.y.a.a.a.a.t.",
"d d d d d d d d d a N (.N a d d d d a z s.z a a d a p p h b 8.t.q.3.2.0.;.l d d d d d p ; ! Q { { { { { { } } ' w.u.y.y.a.a.y.q.",
"d d d d d d d d d a f N f a d d d d a f z f a d a 8 @ 2 %.0.i.i.t.>.b l l s d d d d d a y 1 Y { { Q Q { { { { { ' w.e.y.a.a.y.t.",
"d d d d d d d d d d a a a d d d d d d a a a d a y 6 M F b :.i.I I I g a d d a d d d a d a 8 > Y } ` ` } { { { { { ` _ w.e.u.t.y.",
"d d d d d d d d d d d d d d d d d d d d d d d p % F A E.H j %.v g g s a a a d d d d d a d a 8 > U / / ' ` ` ` } { Q ] ' ` 6.4.t.",
"d d d d d d d d d d d d d d d d d a a a d d d p % G D G Z # i s d d a f N f a d d d a a a a a y - * 1 ! / -.>.' ` ` ` ` ' / =.=.",
"d d d d d d d d d d d d d d d d a f N f a d d a y t A A % 8 a d a d a N (.N a d d a f m m f a a p w 8 ; = = 1 *.2.=.^ / ! 1 * = ",
"d d a a a d d d d d d d d d d d a N (.N a d a d a 8 # # 8 d d d d d a f N f a d d a m ^.^.m a d d d a p w w 8 ; = = = = ; 8 w w ",
"d a f N f a d d d d d d d d d d a f N f a d d a d a p p d d d d d d d a a a d d d a m ^.^.m a d d a d d d d a p w w w w p a d d ",
"d a N (.N a d d d d d d d d d d d a a a d d d d a d d d d a d d d d d d d d d d d a f m m f a d d d d d d a d d d d d d d d a d ",
"d a f N f a d d d d d d d d d d d d d d d d d d d d d d d d d d d d d d d d d d d d a a a a d d d d d d d d d d d d d d d d d d ",
"d d a a a d d d d d d d d d d d d d d d d d d d d d d d d d d d d a a a d d d d d d d d d d d d d d d d d d a a a d d d d d d d ",
"d d d d d d d d d d d d d d d d d d d d d d a a a d d d d d d d a f N f a d d d d d d d d d d d d d d d d a f N f a d d d d d d ",
"d d d d d d d d d d d d d d a a a d d d d a f N f a d d d d d d a N (.N a d d d d d d d d d d d d d d d d a N (.N a d d d d d d ",
"d d d d d d d d d d d d d a f N f a d d d a N (.N a d d d d d d a f N f a d d d d d d d d d d d d d d d d a f N f a d d d d d d ",
"d d d d a d a d d d d d a a N (.N a d d d a f N f a d d d d d d d a a a d d d d d d d d d d d d d d d d d d a a a d d d d d d d ",
"p p p a d a d a p w p a d a f N f a d d d d a a a d d d d d d d d d d d d d d d d d d d d d d d d d d d d d d d d d d d d d d d ",
"# @ # 8 a d d p . o . p d d a a a d d d d d d d d d d d d d d d d d d d d d d d d d d d d d d d d d d d d d d d d d d d d d d d ",
"R.S A t y a a 8 o J o 8 a d d d d d d d d d d d d d d d d d d d d d d d d d d d d d d d d d d d d a a a d d d d d d d d d d d d ",
"Q.R.Q.G # p p . & L & . p d d d d d d d d d d d d d d d d d d d d d d d d d d d d d d d d d d d a f N f a d d d d d d d d d d d ",
"D !.!.D @ p p o K | L o p d a d d d d d d d d d d d d d d d d d d d d d d d d d d d d d d d d d a N (.N a d d d d d d d d d d d ",
"G /.!.G # p 8 o L | P o 8 a d d d a a a d d d d d d d d d d d d d d d a a a d d d d d d d d d d a f N f a d d d d d d d d d d d ",
"R.G Z t y p   X J L K X   p d d a f z f a d d d d d d d d d d d d d a f N f a d d d d d d d d d d a a a d d d d d d d d d d d d ",
"# @ # 8 d p   # , , , #   p d d a z s.z a a a a d d d d d d d d d d a N (.N a d d d d d d d d d d d d d d d d d d d d d d d d d ",
"p p p a d y $ Q./.Q./.Q.$ y d d a f z f a f N f a d d d d d d d d d a f N f a d d d d d d a a a d d d d d d a a a d d d d d d d ",
"d d d d d 8 % /.!.Z !./.% 8 d d d a a a a N (.N a d d d d d d d d d d a a a d d d d d d a f N f a d d d d a f N f a d d d d d d ",
"d d d d d y $ H V W.Z Q.% 8 d d d d d d a f N f a d d d d d d d d d d d d d d d d d d d a N (.N a d d d d a N (.N a d d d d d d ",
"d d d d d p # E.R.V !./.% 8 a d d d d d d a a a d d d d d d d d d d d d d d d d d d d d a f N f a d d d d a f N f a d d d d d d ",
"d d d a d p # E.).!._./.% y d a d d d d a a a d d d d d d d d d d d d d d d d d d d d d d a a a d d d d d d a a a d d d d d d d ",
"d d d d a 8 t R._._._.Q.# 8 a d d d d a f N f a d d d d d d d d d d d d d d d d d d d d d d d d d d d d d d d d d d d d d d d d ",
"d d d d p % D B !./.!.g # . p d d d d a N (.N a d d d d d d d d d d d d d d d d d d d d d d d d d d d d d d d d d d d d d d d d ",
"d d d d y $ E.R.g t g !.Q.$ y d d d d a f N f a d d d d d d d d a a a d d d d d d d d d d d d d d d d d d d d d d d d d d d d d ",
"d d d d 8 % ~./.E.E.Q._./.% 8 d d d a a a a a d d d d d d d d a f N f a d d d d d d d d d d d d d d d d d d d d d d d d d d d d ",
"d d d d 8 % /._._._._._./.% 8 d d a f N f a d d d d d d d d d a N (.N a d d d d d d d d d d d d a a a d d d d d d d d d d d d d ",
"d d d d 8 % /._._._._._./.% 8 d d a N (.N a d d d d d d d d d a f N f a d d d d d d d d d d d a f n f a d d d d d d d d d d d d ",
"d d d d 8 % /._._._._._./.% y d d a f N f a d d d d d d d d d d a a a d d d d d d d d a a a d a n h.n a d d d d d d d d d d d d ",
"d d d d 8 % /._._._._._./.% y d d d a a a a d d d d d d d d d d d d d d d d d d d d a f N f a a f n f a d d d d d d d d d d d d ",
"d d d d p % Q./././././.Q.% p d d d a f N f a d d d d d d d d d d d d d d d d d d d a N (.N a d a a a d d d d d a a a d d d d d ",
"d d d d a y $ % $ % $ % $ y a d d d a N (.N a d d d d a a a d d d d d d d d d d d d a f N f a d d d d d d d d a f N f a d d d d ",
"d d d a a p . u @ u @ B @ p d a d d a f N f a d d d a f N f a d d d d d d d d d d d d a a a d d d d d d d d d a N (.N a d d d d ",
"d d d d a p # V $ V $ V # p d d d d d a a a d d d d a N (.N a d d d d d d d d d d d d d d d d d d d d d d d d a f N f a d d d d ",
"d d d d a a 8 @ O : O @ 8 a d d d d d d d d d d d d a f N f a d d d d d d d d d a a a d d d d d d d d d d d d d a a a d d a a a ",
"d a d d a a y 1 ! >.~ 1 y d d d d a d d d d d d d d d a a a d d d d d d d d d a f N f a d d d d d a a a d d d d d d d d a f z f ",
"a d a p y 8 ; ~ 4.4.t.;.; 8 y p a d a d d d d d d d d d d d d d d d d d d d d a N (.N a d d d d a d n d a d d d d d d d a z s.M ",
"d a 8 5 5 + O 8.0.5.2.8.O + 4 5 8 a d d a d d d d d d d d d d d d d d d d d d a f N f a d d d d a n F n a d d d d d d d a f z f ",
"y 8 e m.B.d.< ;.x p.j ~ 2 d.b.d.q 8 p a d a d d d d d d d d d d d d d d d d d d a a a d d d d d a d n d a d d d d d d d d a a a ",
"6 e J.H.U.N.k &.x &.j I r b.A.A.x.0 5 w a d d d d d d d d d d d d d d d a a a d d d d d d d d d d a a a d d d d d a d d d d d d ",
"K.P.%XXXXXY.m.i %.c I 3 z.A.Z.Z.A.b.d.5 p d a d d d d d d d d d d d d a f N f a d d d d d d d d d d d d d d d d a d a p w w w w ",
"*X=X=XT.&X|.N.7 9.r.=.2 b.A.A.A.A.A.b.q 8 a d a d d d d d d d d d d d a N (.N a d d d d d d d d d d d d d d d a d a y - - * * - ",
"%X:X<X>X<X:X Xg 3 :.>.3 z.A.Z.Z.S.S.G.c.q 8 a d d a d d d d d d d d d a f N f a d d d d d d d d d d d d d d a d a 8 > R ) ) ^ E ",
"Y.:X1X1X1X1X<X@XJ.l *.p.r b.H.L.I.I.U.F.f.q 8 p a d d d d d d d d d d d a a a d d d d d d d d d d d d d d a d a y > R ( <._ ` Q ",
"$X<X1X1X1X1X1X<X|.c.3 ~ 2 B.Y.T.].`.oX].j.g.q   p d a d d d d d d d d d d d d d d d d d d d d d d d a a a d a 8 - R ( 1.] 1.,.<.",
"[.-X1X1X1X1X<X=X}.n.r I h K.&X>X;X+X-X'.`.l.f.0 8 a d d d d d d d d d d d d d d d d d d d d d d d a f N f a y - > ) ( ,.3.3.4.3.",
"OX[.,X1X1X1X*XH.S.A.x.C {.*X:X<X;X'.;X;X+X{.I.c.5 p d a d d d d d d d d d d d d d d d d d d d d d a N (.N 8 > Y W 1.,.3.4.4.4.4.",
"-X-X<X1X1X>XT.H.Z.A.S.}.%X:X<X1X<X;X1X1X1X;X|.n.4 8 a d d d d d d d d d d d d d d d d d d d d d d a f N p > Y Q <.3.1.3.4.4.3.3.",
"#.$.oX=X:X:X:XXXG.C.A.D.Y.:X1X1X1X1X1X1X1X<X}.n.0 . p d d d d d d d d d d d d d d d d d d d d d d d d w - Y { Q ( 1.3.3.4.4.3.3.",
"O.O.j.F.U.I.#X$X].@.V.D.XX<X1X1X1X1X1X1X;XoXk.C.z.4 y d d d d d d d d d d d d d d d d d d d d d d d d w - T { { ` ,.4.4.3.4.3.3.",
"C.C.C.A.C.@.+.+.o.O.F.U.T.>X1X1X1X1X1X;X'.$.O.M.b.4 y d d d d d d d d d d d d d d d d d d d d d d d d w - T } Q _ 3.4.4.4.3.3.<.",
"A.A.A.A.C.O.......+..X&X&X:X<X1X1X1X<XOXl.o.X. .v.4 y d d d d d d d d d d d d d d d d d d d d d d d d w - T Q <.1.<.3.4.4.3.] ` "
};
