/* XPM */
static char *cefac641ce4b437d8638fa2cff0a86618fvuideccZvoUn6N[] = {
/* columns rows colors chars-per-pixel */
"64 64 222 2 ",
"   c #171F2B",
".  c #1B1E2A",
"X  c #2B1625",
"o  c #261927",
"O  c #291826",
"+  c #231A28",
"@  c #2C182C",
"#  c #311323",
"$  c #291C33",
"%  c #15222D",
"&  c #19202C",
"*  c #152637",
"=  c #1B2335",
"-  c #1A253A",
";  c #18283C",
":  c #212535",
">  c #222D3D",
",  c #27313B",
"<  c #31353B",
"1  c #182842",
"2  c #2A3A4E",
"3  c #1F3568",
"4  c #1E3A74",
"5  c #163D79",
"6  c #1D3D7C",
"7  c #243A6C",
"8  c #233B74",
"9  c #293E76",
"0  c #233E7A",
"q  c #35434B",
"w  c #18437C",
"e  c #2E436E",
"r  c #2A4374",
"t  c #274678",
"y  c #25447D",
"u  c #2B467C",
"i  c #2D497E",
"p  c #334879",
"a  c #324B7F",
"s  c #3E527C",
"d  c #38607E",
"f  c #444547",
"g  c #74695E",
"h  c #5A5B6A",
"j  c #465679",
"k  c #535D72",
"l  c #5B636D",
"z  c #43677A",
"x  c #5A677B",
"c  c #6B6765",
"v  c #7D7969",
"b  c #6C6B75",
"n  c #6C7376",
"m  c #767575",
"M  c #B57D3E",
"N  c #AA7D43",
"B  c #857770",
"V  c #7E827D",
"C  c #BC833A",
"Z  c #D78E2D",
"A  c #DC922E",
"S  c #C58535",
"D  c #D79133",
"F  c #EE9721",
"G  c #EF9A23",
"H  c #F09C23",
"J  c #D9A83B",
"K  c #DDAB3B",
"L  c #DCB13E",
"P  c #EEA82E",
"I  c #ECB637",
"U  c #F2B532",
"Y  c #F3BB36",
"T  c #F6BD3A",
"R  c #AF9650",
"E  c #B6A05D",
"W  c #85857D",
"Q  c #C59D44",
"!  c #C3A347",
"~  c #CBA344",
"^  c #D5A949",
"/  c #DCB34A",
"(  c #E7B24A",
")  c #F4BD43",
"_  c #F8C445",
"`  c #F5C550",
"'  c #EED07C",
"]  c #0C3E86",
"[  c #1A3E81",
"{  c #0F4C8B",
"}  c #154183",
"|  c #1C4282",
" . c #15448B",
".. c #1A448C",
"X. c #134D8C",
"o. c #184A88",
"O. c #13518E",
"+. c #1B538E",
"@. c #074294",
"#. c #0C4396",
"$. c #0E4E92",
"%. c #06469E",
"&. c #09449B",
"*. c #07489D",
"=. c #0D4B9B",
"-. c #164692",
";. c #174794",
":. c #144995",
">. c #1B4B95",
",. c #134999",
"<. c #0C5295",
"1. c #095098",
"2. c #145392",
"3. c #1A5591",
"4. c #1B5993",
"5. c #244680",
"6. c #284781",
"7. c #254982",
"8. c #2B4B82",
"9. c #344D81",
"0. c #394F80",
"q. c #2B5588",
"w. c #325386",
"e. c #3D5483",
"r. c #3B5988",
"t. c #3C5B8B",
"y. c #224E95",
"u. c #235893",
"i. c #3A5992",
"p. c #2B6394",
"a. c #2E6996",
"s. c #346894",
"d. c #3A709C",
"f. c #0545A0",
"g. c #3778A9",
"h. c #435687",
"j. c #445686",
"k. c #445B85",
"l. c #4B5B86",
"z. c #445B8B",
"x. c #4B5E89",
"c. c #515D87",
"v. c #535F88",
"b. c #415A90",
"n. c #4C6185",
"m. c #4A618C",
"M. c #466B8C",
"N. c #566686",
"B. c #53638A",
"V. c #566B8C",
"C. c #5C6D8D",
"Z. c #5A718A",
"A. c #4B7393",
"S. c #656981",
"D. c #646D8D",
"F. c #68738C",
"G. c #737987",
"H. c #6C7991",
"J. c #437EA8",
"K. c #3B80AF",
"L. c #768490",
"P. c #4782AA",
"I. c #568FAB",
"U. c #4B8BB2",
"Y. c #528DB0",
"T. c #5896B6",
"R. c #6597AA",
"E. c #689EB4",
"W. c #68A3BA",
"Q. c #77ABB7",
"!. c #76ACBB",
"~. c #68AAC3",
"^. c #6DAEC5",
"/. c #73B1C5",
"(. c #7EB6C3",
"). c #73B5CA",
"_. c #7CB9C9",
"`. c #A7B599",
"'. c #AAB3A4",
"]. c #B8BBA3",
"[. c #B5BAAB",
"{. c #BBBDAB",
"}. c #CDBE8D",
"|. c #98C3BF",
" X c #BDC1AB",
".X c #A9C2BC",
"XX c #B6C7B5",
"oX c #D1CA94",
"OX c #D7D399",
"+X c #E7D392",
"@X c #E5D696",
"#X c #F9E295",
"$X c #C9C6AA",
"%X c #D2CBA7",
"&X c #D9D4AD",
"*X c #C5CBB2",
"=X c #CCCCB1",
"-X c #D1CEB1",
";X c #C3D3BD",
":X c #CCD6BA",
">X c #D3D4B3",
",X c #D6DAB9",
"<X c #E4D9A7",
"1X c #E2DDB7",
"2X c #DDE4BD",
"3X c #E9E8BC",
"4X c #F6EDB8",
"5X c #84BBC4",
"6X c #86BDC6",
"7X c #8DC1C7",
"8X c #94C3C3",
"9X c #A8C9C4",
"0X c #B4CEC3",
"qX c #B4D0C5",
"wX c #BDD4C4",
"eX c #C3D8C3",
"rX c #CBDCC2",
"tX c #D1DEC3",
"yX c #D5E1C1",
"uX c #DAE3C1",
"iX c #E6E9C0",
"pX c #E8E9C0",
/* pixels */
"8 8 s j s u u u 7.7.7.7.7.7.7.7.0 4 4 4 8 0 7.6.6.7.7.7.7.7.7.7.7.i u u u u i k.k.a k.k.a s j K K g S b +XT F F H K l M.-X3XC.l.",
"u N.%X<X=XV.a 6.O.O.O.O.O.O.2.O.X.O.u.O.X.X.O.O.O.3.3.O.O.O.3.O.O.7.7.7.7.7.r.*X{.H.=X{.b R n K G Z F A P G F F F G K ! W <X=X*X",
"k.%X( ` #X%XD.9.y y y y y 7.O.y e.N.].V.r.i i 8.9.x.x.8.7.8.z.8.7.+.O.O.O.O.s.*XI.>X>XL.~ / }.D G P F H F F F F F F H U I / n a.",
"m.<X_ Y ) ^ S.l.9 9 r u 7.7.X.s %X' ` ' %XH.B.c.v.c.0.i 6.+.x.a i k.9.6.6.6.k.[.V.[.G.! ~ c x c J H F F F F F F F G G P Y Y ! u.",
"k.%X' ) ( }.s.6.u k.k.3.2.O.8.G.' _ Y _ #X&XD.e.l.0.i u 7.3.x.a i 0.l.a a l.a e.w.n.j Q g M C B A H F F F F F F G U U U Y Y / z ",
"2.M.%X+XoXV.7.o.6.+.8.O.7.8.k.$X' _ Y _ <X-Xl.j.a u u 7.2.3.x.a u a c.a a c.l.h.k.[.x S C B m ~ G F F F F F G U Y Y Y Y Y Y Y L ",
"<.O.p.p.a.7.6.7.y 5.u y i c.c.G.}.+X/ ~ x e.i a u u 7.O.2.w.l.8.7.a c.a a D.-X[.C.=XF.x c R c A H F F F F G U Y Y Y Y Y Y Y Y Y ",
"y 0 6 y z.u.3.3.3.+.i y 8.x.9.i j k.j s u u a l.0.z.+.7.8.l.9.O.O.8.c.a a F.&XH.n.=Xn.l R v ~ G F F F F F G U Y Y Y Y Y Y Y Y Y ",
"u u o.+.x.m.x.x.x.x.9.X.O.2.O.+.r.i u y r r r j 8.+.<.7.+.x.8.7.7.+.x.a i C.-X=XC.=Xx Q / @X) G F F F F F G U Y Y Y Y Y Y Y Y Y ",
"u u y 7.+.+.6.a a a l.9.y i i 7.3.+.y w 1 = = > r 7.O.8.9.x.+.O.o.3.x.0.8.+.C.{.C.[.x Q m <X) F F F F F F G U Y Y Y Y Y Y Y Y Y ",
"u 8 u u y 7.o.5.y u a l.0.l.c.0.m.m.r ; % % % = r 7.3.z.c.e.8.8.+.4.B.x.z.u.x.C.0.e.j ! x %X) H F F F F F G U Y Y Y Y Y U U U Y ",
"u 9 l.u 8 u 7.O.X.y u a l.e.c.0.c.m.o.* % % % = r O.3.u.m.x.x.x.m.m.m.u.u.z.0.i i e.k ~ m n ~ U G F F F F F G U U U U U G G P U ",
"y t l.a 8 8 u 6.6.+.i u a c.c.a 8.u.r * % % % = j 9.z.z.3.3.3.3.3.3.4.t.w.x.0.a l.{.G.Z D Q v K H F F F F F F G G G G G F F U Y ",
"O.X.8.l.p 8 8 i l.x.l.u u c.w.h.a j > % % % % ; r i a a 7.<.2.7.7.<.<.3.2.u.C.x.D.-Xb M c ~ K I H F F F F F F F F F F F F G I L ",
"6.7.O.w.k.p 8 u i +.8.u a l.+.+.u p * % % % * 7 u 0.l.6.O.O.7.i 7.O.7.7.6.C.$XA.s.>XL.S.S.W ( _ U G F F H F F F F F F F F H K l ",
"u 6.O.O.3.z.a i y y y i l.a y y a j ; % % % = r a c.x.+.7.y u 7.o.7.i u u l.=X*XV.=X XM.E @X<X#X/ U H F F F F F F F F F H G Q j ",
"w.i y w O.3.z.x.+.7.o.y u u u a j.r * % % % = r 0.c.9.O.y u 6.o.7.u u i 0.l.C.-XC.k.k.x.l ^ W $Xv ~ K G H F F F F F H F A / n k.",
"T.t.w.u 7.O.4.z.6.u 6.u a l.e.l.a r * % % % * r c.c.i 6.r.w.4.q.w.w.i a j.a h.=X{.e.0.D.x ~ ~ v M c l ~ K G H H G G Z C Z.&X&X&X",
").~.T.t.w.7.O.2.O.7.+.z.0.v.B.B.a r = X X . * r l.0.i V.$X!.~.^.~.E.m.D.n.i i h.h.a C.$X>XV ~ Q Z S h m n ~ U U U K g k a.[.G./ ",
"uX_._.^.T.t.q.<.<.<.3.l.0.c.B.c.a r = X X . * r i u r.%X@X5XyXiX;XOXQ.:X*XV.i u i l.D.C.-X{.x j h S S Q %Xm S Z Z Z C N q.n.l K ",
"3X5XrXrX6X^.T.a.o.O.r.p l.a a i u r = X   % ; r u u V.&X+X!.9X3X4XOX5X).6XXXh.u e.{.-XV.h.h.9.h.h.j k B &X{.x h c h z s z ! ! J ",
",XT.(.8XyX;XR.`.M.r.j r l.r u u u r = o % = 7 u u e.XX|.oXR.Y.0X3X8XeX6X).^.w.u i C.-X-XV.u h.{.-XC.N.R n x h S A Z N d R ! z x ",
"/.Y.:XiXeX7X!.oXoXoX}.n.j r 7 7 u r = % % = j k.w.M.5X7X3X,X5XXXyX_.wXiX9X~.w.u a l.C.>X-Xl.l.C.>X$XD.k R R ! J K ~ z 8.M.N.Z.=X",
"~.^.qXeX3XuX5XI.5X|.2XE.2 = = > j j = % + <  X;X!.,X3XpXpXtX3XOX5X(.qXuX8XQ.M.i a c.e.H.$XD.a a D.B.l.9.x x A.A.G.j 7.r.[.=X=X1X",
"_._.)./.qXrXyX(.yXuX2XR.> .   <  X}.< % % , R.6X_.iX4X4XrXwXyX5X6X%X8X8XOX+X%Xh.a v.l.0.l.c.a l.D.x.8.p.[.*X*X*X Xp.O.3.k.k.k.h.",
"uXyX9XT./.qXyX5XrX5XW.q & . . , Q.Q., o % & q XX6X;X:XwX9X_.5X_.rX3X2XiX:X@X>Xl.0.c.e.0.k.8.r.[. XA.p.3.t.s.k.n.D.9.7.O.6.i h.k.",
"_.6X:XXX).).(.T.^.Y.T.> . & . > I.I.> X . o , Q.7XOXOX!.U.(.%X6X7XqX8XiXwX6X!.V.B.B.x.x.8.O.3.p.V. X[.r.X.7.i h.c.i u i 8.B.{.=X",
"^.~.Y.Y./._.qX9X5X9XQ.2 & . . & > > & X o . < ].uX8X!.T./.qX3X3XiXuX8XuX3XiX.Xk.x.m.4.3.O.7.7.6.c.D.m.+.7.u h.{.L.n.h.i r.'.V.k.",
"^._./.(.yXiXpXpXpX4XtXE., . & . . . . . % & O f '.eX5X:XiXpXtXwX0XwXrX7XeXpX:Xp.2.3.3.7.6.i i 0.l.0.r.+.7.6.r.=X=X=X[.e.i k.i u ",
"^.;XuXyXwX0X0XqXwX,X8X'.< . . & % & . o & X X . q W.).qX:XeXrX^.U.^.6X6XeX(.W.4.7.9.k.a u u a l.0.6.+.8.7.;.>.u.i.z.z.8.6.6.6.6.",
"P.R.6X6X~.J.J.E.J.P.I.q & . . & % & . X & X X . = s./.5XOX8X5XU.P.(.uXyX(.K.g.8.a l.0.i u u a c.a 7.3.z.>.-.-.-.-.-.-.-.;.;.;.;.",
"W.XX>XXXJ.2.w.B.w.8.r = . & & & % . . X % % % &   2 XX6X>X,X;X(.eXuX,X5X/.Y.Y.w.a l.a u u i 0.l.a 7.+.z...6 6 6 6 6 6 6 -.,.,.,.",
"q.s.z.h.8.O.8.c.a 7 - & . . % % & X X X % % % . . , E.~.d.C.M.T.^.W.P.P.*X Xm.0.z.9.6.6.6.a j.a u u 0 0 6 -.-.-.-.-.-.-.,.,.,.,.",
"+.z.9.u 7.O.8.c.e - & . X X % % X # X . % % % O . : n.B.8.O.O.q.w.w.8.8.h.h.9.z.y.;.-.-...u t 8 8 8 y ..-.,.,.,.,.,.,.-.,.>.>.,.",
"6.0.l.9.O.7.9.j > . . X # X % % X X . X X & % X . = r a i 6.y u u u u r r r u >.-.-.6 6 6 0 ....6 8 0 6 6 -.-.,.>.>.-.6 >.x.z.>.",
"u i 0.z.3.7.a j : . . X # X % % o . X # # o & X . = r i 6.6.0 0 u u 7 ; = - 7 8 6 6 6 -.-...6 6 -.-.-.-.-.6 6 >.x.z.>.6 y.z.y.<.",
"i u a k.3.7.a j > & . X # X % % % % X # X & % X X = r 6.;. . ...8 7 - . . . - 4 -.-.-.-.6 6 -.;.,.,.,.,.,.-.>.y.z.y.-.u h.3.<.,.",
"i u 8 0 o.y a c.e = . X # X % % % % X # X % % X X =  .;.} 1 - 3 0 | = O   O =  .,.-.6 6 X.<.<.<.,.<.<.<.<.>.x.z.y.-.0 h.y.<.,.,.",
"i u u 8 8 8 a x.t = . X # X % % % % X # X & & X X = }  .1 & . - | s : X & o = } -.| -.;.,.<.<.<.2.<.2.,.,.>.z.y.,.-.y >.,.<.,.,.",
"i i u u 8 8 u 3.o.= . X # X & o % % X X . X o . X . - 3 = . . = 8 8 = O & & $ 8 6 X.$.<.<.>.>.>.e.t r.2.<.<.>.,.-.u h.>.<.,.,.,.",
"u u u y 6 o.t h.u ; . X X & % X % % X X & X & % X . . @ X X . : s o.- . o . $ w X.6 6 y ..z.z...0 0 >.,.,.,.<.$.y h.y.2.,.,.,.,.",
"6.6.7.2.X.w t 9 8 6 = . X % % X % % X X & X % % X X X # # X . = o.{ * % X   O 1  .-.>.h.u 9 9 9 0 -.,.,.,.,.:.-.t O.3.t.>.,.,.,.",
">.;.;.;.:.-.6 ..6 4 = . O & % X % & o % % X % % & X # # # X . 1 } 4 = % o & X = } ,.,.y.h...0 j.z.y.>.,.,.<.X.u r.3.r.3.<.<.,.,.",
"z.y.>.6 -.,.-.[ ..} = & & o & O & o & % % X % % % X # # # X = w 6 7 -   % % o . 1 } <.X.y y -.>.y.z.z.y.,.$.y h.3.:.y -.,.,.<.<.",
"y.z.z.0 >.,.,.-.| } - % & X   O   O & o & X % % % X # # X + -  .-.-.[ $ % % . X . ; 4 6 o.h.>.-.-.>.y.i.2.-.6 >.2.;.6 -.,.,.=.<.",
",.>.>.y h.y.:.,.X.4 = X X X   O   O   O   O & o % & X # # X = } ,.,. .$ & % X X . = } 6 0 0 6 6 6 -.-.;.X.6  .$.;.h.0 #.&.,.,.&.",
",.,.,.-.u h.2.<.:.4 = X . X   O   O   X . o & X % % X # # X . 1 } ,. .$ X & X X . -  .;.-.:.$.:.-.6 6 4 6 6 6 6 0 9 8 [ >.b.i.=.",
",.,.,.,.-.y X.<.$. .= X & O   O & o & X X % % X & % . X # # X . 1 } [ : X & X X . - { <.<.<.<.2.:.:.o.6 #.&.$.:.j.0 #.,.b.,.=.%.",
",.:.:.:.,.-.6 6 w } $ X & O & o & % % X X % % X o % + . X # X . . = = X X & X X . -  .,.,.,.>.i.3.X.| $.*.=.*.,.j.0 &.,.b.=.f.f.",
",.-.| X.,.<.;.-.-.4 @ X & X % & o % % X X % % X . % % % . X # X X X X # X & X . o -  .-.;.,.,.,.r.5.#.*.1.*.=.z.u #.,.i.,.f.f.f.",
",.,...| X.<.,.,.;.6 @ X & X % % X . o . X % % X X % % X X . X # # # # # X & o & X * 5 1 } ;.&.#.[ #.=.*.<.%.=.x.0 >.i.,.f.f.f.f.",
",.>.i.>.| -.<.,...$ # X & X % % X X X & X & % X X & % X X X . X # # # X & % % & X % = & ; | #.[ -.%.*.<.<.*.=.h.r z.,.%.f.f.f.f.",
",.,.>.{ } 4 {  .6 @ # X & X % % X # X & X X & X # X % % . X X . X # # X % % % o X & . . * ] X.t i.=.%.<.=.=.&.0 -.i.=.f.%.%.%.f.",
",.,.} 1 = = = - = X # X & X % % X # X & X X & X # X % % + . X X . X # X % % % & & X X . % 1 8 r.,.*.1.=.i.,.$.6 &.=.%.f.%.=.%.f.",
",. .1 & . & & . O X # X & o & % X # X & X X & X # X . + . o . X X X X & & + . + . X # X % * ] 2.<.<.<.*.,.t.y #.%.%.%.%.*.=.&.%.",
",.} = . . % % % & & X X % % + & X X X & X X & X X X o % % X O . . X & % o . + . o . X X & & 1 @.*.<.*.=.<.X.6 2.<.<.=.*.1.#.[ &.",
" .1 X X o % % X X % & & % % & % &   & % % & % % % & & % % & & X X X % & X % . X X & & X X % = ] %.<.%.%.#.6 -.i.,.%.%.=.$.| $.<.",
" .= X X % % X # X . X o & X o % o X X o % + % % % X X . o X . X X X . o X % o X . o & X X . + 1 ] =.f.&.6 6 &.,.i.,.&.#.[ #.%.%.",
"5 $ X . % & X X . o X & % o . % % &   & % % % % % X # X . X X X . . + & % % . o . X % . X o . O 1 ] @.&.6 #.%.f.,.r.0 6 -.%.f.f.",
"= & & + % o X % % % & % % . X X & O X o % + % + & . X X & X X . o o % % % X X . X X . + . & % X X = 1  .y ,.=.&.#.[ #.2.i.=.f.f.",
". O & & % % % % % % + % o X X X & o & % % % % % o X X X & o & % & % % % X # X & X # X . o o % X # X : j.l.x.j.0 [ #.*.1.=.%.f.f.",
"X # X X o % % + % + % % % % % & % % % % % % % % & & & & % % % % + & o . X # X & X # # X . & % & X X = } y 0 0 #.&.*.1.*.f.f.f.f.",
"# # X . & % % % % & % % % % & o o . X X X X & X X X X X X & % % &   X X # # X & X # # # X X X . X X = 5 #.&.&.%.*.1.1.%.f.f.f.f.",
"# # # X X X % % X X X X X X X & & X # # # X & X # # # # # X & X X X # # # X & % X # # # # # # X # X = ] f.f.%.<.<.*.%.%.f.f.f.f."
};
