/* XPM */
static char *_7fb341a39944fc1dfc989cac28b2c49DUHlGhYNE4AUHSQY[] = {
/* columns rows colors chars-per-pixel */
"64 64 153 2 ",
"   c #4F465F",
".  c #50465F",
"X  c #5D535F",
"o  c #60555F",
"O  c #6A5E5F",
"+  c #6C605F",
"@  c #544B64",
"#  c #574D68",
"$  c #5B516D",
"%  c #5E5572",
"&  c #645A64",
"*  c #6A5F60",
"=  c #615673",
"-  c #655B79",
";  c #695E7C",
":  c #6D6160",
">  c #716862",
",  c #7C6866",
"<  c #7F6C6A",
"1  c #76697C",
"2  c #806C63",
"3  c #867264",
"4  c #887564",
"5  c #8D7A64",
"6  c #87736B",
"7  c #89756B",
"8  c #8E7B6C",
"9  c #917D64",
"0  c #816E73",
"q  c #837074",
"w  c #84747A",
"e  c #A6875F",
"r  c #A7885F",
"t  c #AA8B5F",
"y  c #B6985F",
"u  c #BE9C5D",
"i  c #958365",
"p  c #998666",
"a  c #9E8C65",
"s  c #9F8775",
"d  c #AB8F61",
"f  c #A68A6B",
"g  c #A39366",
"h  c #AD9161",
"j  c #AE9D63",
"k  c #B29560",
"l  c #B49962",
"z  c #B9A465",
"x  c #BDA962",
"c  c #BFA96B",
"v  c #BFAA71",
"b  c #C4A35D",
"n  c #CBAC5F",
"m  c #CFB15F",
"M  c #D0B25F",
"N  c #C0AD63",
"B  c #CFAF61",
"V  c #C2AE6A",
"C  c #C4B264",
"Z  c #CBB664",
"A  c #CDB964",
"S  c #C5B16C",
"D  c #C9B56E",
"F  c #CCBA6D",
"G  c #D3B562",
"H  c #D2BD65",
"J  c #D2BE69",
"K  c #C0AC73",
"L  c #C4AF79",
"P  c #CBB672",
"I  c #CDB973",
"U  c #C4B078",
"Y  c #D1BE73",
"T  c #CEC06A",
"R  c #DBC464",
"E  c #DFCA65",
"W  c #D6C26B",
"Q  c #D8C56C",
"!  c #D5C96A",
"~  c #DBCE6A",
"^  c #DED26B",
"/  c #D8CF74",
"(  c #DCD174",
")  c #DDD479",
"_  c #E0CC65",
"`  c #E2CD69",
"'  c #E3D066",
"]  c #E4D66A",
"[  c #E5DA6C",
"{  c #EBDD6A",
"}  c #E2CC70",
"|  c #E4CD7A",
" . c #E7D27A",
".. c #E9D47E",
"X. c #EEE26B",
"o. c #F1E66C",
"O. c #F2E86D",
"+. c #6D6281",
"@. c #716585",
"#. c #7A6D81",
"$. c #73678A",
"%. c #796C8E",
"&. c #7F7286",
"*. c #7B6E91",
"=. c #7E7195",
"-. c #817485",
";. c #8B7C83",
":. c #837589",
">. c #86788B",
",. c #8E7F88",
"<. c #877792",
"1. c #8D7E95",
"2. c #84779C",
"3. c #86789E",
"4. c #8B7C9D",
"5. c #877AA1",
"6. c #8C7EA5",
"7. c #8D7FA8",
"8. c #8E8284",
"9. c #938394",
"0. c #9C8C95",
"q. c #93849C",
"w. c #97889F",
"e. c #9E8E9A",
"r. c #9F9098",
"t. c #A59D9F",
"y. c #8E80A7",
"u. c #8E80A8",
"i. c #8F83AC",
"p. c #8F84AD",
"a. c #9687A0",
"s. c #958BA6",
"d. c #9083AC",
"f. c #9186AF",
"g. c #948CAE",
"h. c #9B91AD",
"j. c #9186B0",
"k. c #9288B2",
"l. c #948DB2",
"z. c #948AB4",
"x. c #968EB9",
"c. c #968EBA",
"v. c #9790BB",
"b. c #9791BC",
"n. c #9891B9",
"m. c #9891BD",
"M. c #ACA3A7",
"N. c #EAD580",
"B. c #9993C0",
"V. c #9B96C3",
"C. c #9B97C4",
"Z. c #9C97C5",
"A. c #9D99C7",
/* pixels */
"A.A.A.A.A.A.A.A.A.A.A.A.A.A.A.A.A.A.A.A.A.A.A.A.A.A.A.A.A.A.A.A.A.A.A.A.A.A.A.A.A.A.A.A.n.w n.A.A.A.A.A.A.A.A.A.A.A.A.A.A.A.A.A.",
"A.A.A.A.A.A.A.A.A.A.A.A.A.A.A.A.A.A.A.A.A.A.A.A.A.A.A.A.A.A.A.A.A.A.A.A.A.A.A.A.A.A.A.A.n.w n.A.A.A.A.A.A.A.A.A.A.A.A.A.A.A.A.A.",
"A.A.A.A.A.A.A.A.A.A.A.A.A.A.A.A.A.A.A.A.A.A.A.A.A.A.A.A.A.A.A.A.A.A.A.A.A.A.A.A.A.A.A.A.n.w n.A.A.A.A.A.A.A.A.A.A.A.A.A.A.A.A.A.",
"A.A.A.A.A.A.A.A.A.A.A.A.A.A.A.A.A.A.A.A.A.A.A.A.A.A.A.A.A.A.A.A.A.A.A.A.A.A.A.A.A.A.A.A.n.w n.A.A.A.A.A.A.A.A.A.A.A.A.A.A.A.A.A.",
"A.A.A.A.A.A.A.A.A.A.A.A.A.A.A.A.A.A.A.A.A.A.A.A.A.A.A.A.A.A.A.A.A.A.A.A.A.A.A.A.A.A.A.A.n.w n.A.A.A.A.A.A.A.A.A.A.A.A.A.A.A.A.A.",
"A.A.A.A.A.A.A.A.A.A.A.A.A.A.A.A.A.A.A.A.A.A.A.A.A.A.A.A.A.A.A.A.A.A.A.A.A.A.A.A.A.A.A.A.n.w n.A.A.A.A.A.A.A.A.A.A.A.A.A.A.A.A.A.",
"V.V.V.A.A.A.A.A.A.A.A.A.A.A.A.A.A.A.A.A.A.A.A.A.A.A.A.A.A.A.A.A.C.A.A.V.V.A.A.A.A.A.A.A.n.w n.A.A.A.A.A.A.A.A.A.A.A.A.A.A.A.A.A.",
"x.j.f.V.A.A.A.A.A.A.A.A.A.A.A.A.A.A.A.A.A.A.A.A.A.A.A.A.A.A.A.A.V.V.V.j.f.V.A.A.A.A.A.A.n.w n.A.A.A.A.A.A.C.A.A.A.A.A.V.m.A.A.A.",
"f.x.j.B.V.A.A.A.A.A.A.A.A.A.A.A.A.A.A.A.A.A.A.A.A.A.A.A.A.C.A.B.f.u.f.z.u.f.V.A.A.A.A.A.n.w l.A.A.A.A.V.V.A.A.A.A.C.V.j.f.V.A.A.",
"u.u.u.u.f.V.A.A.A.A.A.A.A.A.A.A.A.A.A.A.A.A.A.C.A.A.A.C.A.V.V.j.u.u.u.u.u.u.f.V.A.A.A.A.m.w w n.A.A.V.f.j.C.A.A.V.j.k.m.j.B.C.A.",
"7.7.7.7.u.f.V.A.A.A.A.A.A.A.A.A.A.A.V.V.A.C.Z.V.A.A.A.V.V.k.B.m.x.u.7.7.7.7.u.f.V.A.A.A.A.g.q y.B.V.m.f.m.V.V.b.k.i.f.B.f.p.f.x.",
"u.u.u.u.7.u.V.A.A.A.A.A.A.A.A.V.V.m.j.k.V.V.V.z.V.A.V.z.B.f.m.m.f.u.7.u.u.u.7.u.f.V.A.C.V.y.0 4.i.f.u.u.u.u.u.f.x.p.i.b.i.y.u.d.",
"y.u.u.7.7.u.V.C.A.A.A.V.A.C.V.f.u.j.m.B.m.k.V.V.V.B.j.m.m.u.u.u.u.7.u.u.u.u.y.7.u.f.V.B.f.4.0 4.u.x.u.7.7.7.7.u.u.u.u.u.u.y.u.u.",
"u.u.7.u.u.i.m.k.B.V.V.z.m.z.m.u.f.x.f.i.u.u.m.k.m.f.u.u.u.u.7.7.7.u.u.u.u.u.u.u.7.u.B.f.7.4.0 4.u.u.u.7.u.u.u.7.7.7.7.7.7.7.7.7.",
"u.u.7.u.x.f.v.f.b.j.V.m.k.m.m.f.x.f.u.7.7.u.u.u.u.u.7.7.7.7.u.u.u.u.u.u.u.u.u.u.7.u.b.u.6.0 7 q.y.7.7.u.u.u.u.u.u.u.u.u.u.u.u.u.",
"u.u.7.u.u.u.u.u.u.f.m.j.x.f.u.u.u.u.7.7.7.7.7.7.7.7.u.u.u.u.u.u.u.u.u.u.u.u.u.u.7.u.u.u.4.7 C P e.y.7.u.u.u.u.u.u.u.u.u.u.u.u.u.",
"y.u.u.7.7.7.7.7.u.x.f.u.u.u.7.7.7.7.u.u.u.u.u.u.u.u.u.u.u.u.u.u.u.u.u.u.u.u.u.u.u.7.7.u.6.7 H E P a.7.y.u.u.u.u.u.u.u.u.u.u.u.u.",
"y.u.u.u.y.y.u.7.u.u.u.7.7.7.u.u.u.u.u.u.u.u.u.u.u.u.u.u.u.u.u.u.u.u.u.u.u.u.y.u.u.u.u.y.q.8 ] X.W e.y.7.y.u.u.u.u.u.u.u.u.u.u.u.",
"y.u.u.u.u.u.u.u.7.7.7.u.u.u.u.u.u.u.u.u.u.u.u.u.u.u.u.u.u.u.u.u.u.u.u.u.u.u.u.7.6.4.4.q.v i ] X.H K q.7.u.y.u.u.u.u.u.u.u.u.u.u.",
"u.u.u.u.u.u.u.y.u.u.u.u.u.u.u.u.u.u.u.u.u.u.u.u.u.u.u.u.u.u.u.u.u.u.u.u.u.u.u.6.0 0 0 7 x i ] ^ a 9 0 4.7.u.u.u.u.u.u.u.u.u.7.y.",
"u.u.y.y.u.u.u.u.u.u.u.u.u.u.u.u.u.u.u.u.u.u.u.u.u.u.y.7.7.7.7.7.y.u.u.u.u.u.u.4.0 4.4.7 3 5 T j ! A 9 0 6.u.u.u.u.u.u.u.u.u.u.7.",
"u.u.u.u.u.y.u.u.u.u.u.u.u.u.u.u.u.u.u.u.u.u.u.u.u.u.7.y.a.w.a.y.7.7.y.u.u.u.u.4.0 4.e.V 5 2 a ~ X.{ N 6 4.u.u.u.u.u.u.u.7.7.u.a.",
"u.u.u.u.u.u.u.u.u.u.u.u.u.u.u.u.u.u.u.u.u.u.u.u.u.u.7.a.P W P e.a.y.7.7.7.y.u.4.0 9.L J c 5 c W W Z 9 0 6.u.u.u.u.7.7.7.y.a.e.P ",
"u.u.u.u.u.u.u.u.u.u.u.u.u.u.u.u.u.u.u.u.u.u.u.u.u.u.7.w.W { _ W P e.a.a.y.7.u.6.0 0 9.q.9.q 9.q.9.6 0 4.7.u.u.7.7.y.q.q.e.P W E ",
"u.u.u.u.u.u.u.u.u.u.u.u.u.u.u.u.u.u.u.u.u.u.u.u.u.u.7.w.W X.X.X._ W W P e.y.7.7.4.0 6 0 <.0 <.0 6 7 9.y.7.7.7.y.q.e.I W W _ X.X.",
"u.u.u.u.u.u.u.u.u.u.u.u.u.u.u.u.u.u.u.u.u.u.u.u.u.u.7.a.P _ X.o.X.X.{ R L a.7.y.a.0.V i < , < 9 Z H I e.a.y.7.q.K W { o.X.X.o.X.",
"7.7.7.u.u.u.u.u.u.u.u.u.u.u.u.u.u.u.u.u.u.u.u.7.6.7.u.y.e.P E X.O.X._ P e.y.a.e.I Q ^ F 4 3 4 T X.o.X.Q I e.a.6.,.F X.o.o.O.X._ ",
"7.7.7.u.u.u.u.u.u.u.u.u.u.u.u.u.u.u.u.u.7.6.6.6.=.6.6.7.y.e.W X.X.Q P e.a.e.I Q X.] p i p T i p [ O.o.o.X.Q P 8.q.0.F _ X.O.X.E ",
"7.6.7.u.u.u.u.u.u.u.u.u.u.u.u.u.u.u.7.6.6.*.=.6.5.6.=.6.7.a.P E I e.a.e.I Q X.o.O.] p ! [ o.~ i ! [ o.O.o.o.{ W P ,.;.S W X.{ W ",
"6.=.6.u.u.u.u.u.7.u.u.7.6.7.u.u.u.7.5.=.5.*.5.5.*.3.*.5.7.y.e.U e.y.e.Y X.o.O.O.O.[ g [ O.O.[ p i p [ O.O.O.o.o.X.F ;.&.,.P I r.",
"7.5.7.6.7.7.6.7.u.7.6.6.=.6.u.u.u.6.=.5.5.*.3.*.$.%.$.*.6.u.y.q.y.e.Y X.O.o.X.X.X.{ ] o.O.O.o.[ ! i ^ o.X.X.o.O.O.X.F ;.2.q.a.y.",
"5.=.2.=.5.6.=.6.u.5.=.6.5.7.6.7.u.7.6.5.%.$.%.$.$.$.$.%.5.7.6.*.q.I X.O.O.X.' _ R n n ] o.O.O.O.^ i b R _ ' X.O.O.O.X.D :.6.7.7.",
"%.$.%.2.=.6.6.6.5.*.*.3.=.2.=.5.7.u.6.*.$.$.$.%.$.$.&.-.>.q.6.*.0.Q o.O.O.o.X.{ M u t l { O.O.{ l e u M { X.o.O.o.O.o.W ,.5.6.7.",
"$.$.$.%.*.3.*.%.*.3.2.%.$.%.2.*.6.6.6.5.*.$.%.1.:.;.S J J D :.&.D X.o.O.o.O.O.O.] l d l { O.O.{ l h l ] O.O.O.o.O.O.o.{ D :.*.5.",
"$.$.%.5.3.%.$.%.2.*.%.$.$.$.*.*.5.*.>.q.q.:.;.D J J E X.{ D :.;.W o.O.o.O.o.X.{ { { { { o.o.o.o.{ { { { { X.o.O.o.o.O.o.W ;.$.%.",
"$.$.%.3.*.$.$.$.%.$.$.$.$.%.3.5.5.:.S J J J J E X.o.X.X.Q 0.q.D { o.O.O.o.] n b n ] O.O.O.X.' X.O.O.] n b n ] o.O.O.O.o.{ D &.$.",
"$.$.$.%.$.$.$.$.$.$.$.$.$.$.%.%.%.-.S H J { o.o.o.O.X.E S :.,.W o.O.o.[ ~ l f f f l ~ [ o.X._ X.[ ~ l f f f l ~ [ o.O.O.o.W ;.$.",
"$.$.$.$.$.$.$.$.$.$.$.$.$.$.$.$.$.$.&.-.;.W X.O.O.O.o.J ;.-.D { o.O.[ g p s s.l.h.s p g [ o._ ] g p s s.l.h.s p g [ O.O.o.{ D -.",
"$.$.$.$.$.$.$.$.$.$.$.$.$.$.$.$.$.$.$.$.&.S _ X.X.O.o.J &.-.J o.O.O.o.[ ( t.% % 6.M.( [ o.X._ X.[ ( t.% % 6.M.( [ o.O.o.O.o.J -.",
"$.$.$.$.$.$.$.$.$.$.$.$.$.$.$.$.$.$.$.$.$.;.S W E X.X.J -.-.J o.O.o.O.O.O./ > & 8.) O.O.o._ _ X.O.O./ > & 8.) O.O.O.o.O.O.o.J -.",
"$.$.$.$.$.$.$.$.$.$.$.$.$.$.$.$.$.$.$.$.$.$.-.;.S J J S &.-.J o.O.o.O.O.O.o.] ^ [ o.O.o.{ _ X.o.O.O.o.] ^ [ o.O.O.O.O.o.O.o.J -.",
"$.$.$.$.$.$.$.$.$.$.$.$.$.$.$.$.$.$.$.$.$.$.$.$.&.-.-.&.$.-.J o.O.O.o.X.X.X.O.O.O.O.O.X.M R X.O.O.o.O.O.O.O.o.X.X.X.o.O.O.o.J -.",
"$.$.$.$.$.$.$.$.$.$.$.$.$.$.$.$.$.$.$.$.$.$.$.$.$.$.$.$.$.-.J o.O.o.X.` ` ` X.o.O.o.O.{ m E X.o.o.O.O.o.O.o.X.` ` ` X.o.O.o.J -.",
"$.$.$.$.$.$.$.$.$.$.$.$.$.$.$.$.$.$.$.$.$.$.$.$.$.$.$.$.$.-.J o.o.X.`  ... .` X.o.O.O.X.E X.X.' X.O.O.O.o.X.`  ... .` X.o.o.J -.",
"$.$.$.$.$.$.$.$.$.$.$.$.$.$.$.$.$.$.$.$.$.$.$.$.$.$.@.$.$.-.J o.X.`  .N...N. .` X.O.O.X._ { X._ X.O.O.O.X.`  .N...N. .` X.o.J -.",
"$.$.$.@.$.$.$.$.$.$.$.$.$.$.$.$.$.$.$.$.$.$.$.$.$.@.% @.$.&.D X.X.` ....} ....` X.O.O.X._ _ ' X.o.O.O.O.X.` ....} ....` X.X.D -.",
"$.$.+.$ @.$.$.$.$.$.$.$.$.$.$.$.$.$.$.$.$.$.$.$.$.$.+.$.$.@.;.W X.` | N...N.| ` X.O.O.o.X.X.X.O.O.O.O.O.X.` | N...N.| ` X.W ;.$.",
"@.@.# # @.$.$.$.$.$.$.$.$.$.$.$.$.$.$.$.$.@.@.$.$.+.$ +.#.$ 1 S { { H | | | H { o.O.o.X.X.o.o.X.{ X.o.o.X.{ H | | | H { { D &.$.",
"# ; # +.@.@.@.$.$.$.$.$.$.$.$.$.$.$.$.$.+.$ $ +.+.# @ : z : @ : H o.{ G B G { o.O.O.X.n n { { n b n { ] G { { G B G { o.W ;.$.$.",
". @ @ ; $ @ # @.$.$.$.$.$.$.$.$.@.$.$.+.= +.; # @   X x R x X X N { o.X.{ X.o.O.o.X.] h t b b t e t u y n X.o.X.{ X.o.{ S #.@.$.",
"      # - @ @ +.$.@.$.@.$.$.@.+.$ +.+.$ ; +.#       X A { A X   : H o.O.O.O.O.O.X.G n t e e e e r d k n { o.O.O.O.O.o.H : @ # +.",
"        @     # ; $ ; % +.@.$ $ ; # # - # @ .       X A X.H : X X N X.O.O.o.O.O.o.X.] n b t t b n ] { X.o.O.o.o.O.O.X.N X   X & ",
"              . @   # - $ +.+.+.+.@   @           . + A o.{ H x X * C X.O.O.O.o.O.O.o.X.{ n n { X.o.O.O.O.o.O.O.O.X.C *   X x A ",
"                      # - # # - #                 X x E X.O.X.H +   O C X.o.o.O.O.o.O.O.o.X.X.o.O.O.o.o.O.O.o.o.X.C *     + H X.",
"                        @     @                   + H X.o.O.X.E N O . * N H { o.o.O.O.o.O.O.O.O.o.o.O.O.o.o.{ H N *     O N E X.",
"                                              . O N E o.O.O.o.{ E x X   X : N H { o.o.O.O.O.O.O.O.O.o.o.{ H N : X .   X x E { o.",
"                                              X x _ X.X.o.o.X.E A x X     . X : N H { o.o.o.o.o.o.o.{ H N : X .       X x A E X.",
"                                            . : H { X.E A A A x : X .         . X : N A A A A A A A N : X .           . X : x A ",
"                                            X x Z A A x + X X X .                   X X X X X X X X X                     . X o ",
"                                            X j : X X X .                         . X                 X .                       ",
"                                            . X .                                 X j : X X X X X X : j X                       ",
"                                                                                  X x Z A A A A A A Z x X                       ",
"                                                                                  . : H X.o.o.o.o.X.H : .                       ",
"                                                                                    X A o.O.O.O.O.o.A X                         "
};
