/* XPM */
static char *c8e5b25e6a654f3bd9248275803e54e5LxHFOrh8AoQgLCCk[] = {
/* columns rows colors chars-per-pixel */
"64 64 144 2 ",
"   c #000101",
".  c #090504",
"X  c #130D0A",
"o  c #0A160A",
"O  c #18100E",
"+  c #131A0A",
"@  c #1A1D0D",
"#  c #030F19",
"$  c #03121D",
"%  c #09141D",
"&  c #161E11",
"*  c #1E1A11",
"=  c #211916",
"-  c #1E2A0F",
";  c #0F2A1F",
":  c #1B2113",
">  c #1F2D13",
",  c #102B1E",
"<  c #1C2E18",
"1  c #212417",
"2  c #282617",
"3  c #222E12",
"4  c #2C3C16",
"5  c #0F1E26",
"6  c #061D2F",
"7  c #131D25",
"8  c #1B1F26",
"9  c #061F33",
"0  c #0D2726",
"q  c #0E2B21",
"w  c #102722",
"e  c #1D2027",
"r  c #112D24",
"t  c #1A2328",
"y  c #1C3B25",
"u  c #1D3927",
"i  c #0D2D3B",
"p  c #13293B",
"a  c #1E2E3E",
"s  c #0E3730",
"d  c #0E3C34",
"f  c #0F383B",
"g  c #232122",
"h  c #222B35",
"j  c #452B22",
"k  c #4A2E24",
"l  c #4D3026",
"z  c #4F3228",
"x  c #54352B",
"c  c #533A2F",
"v  c #59392D",
"b  c #553B32",
"n  c #5C3D32",
"m  c #613F33",
"M  c #2E4018",
"N  c #384F1E",
"B  c #3A521E",
"V  c #194837",
"C  c #1B473E",
"Z  c #1B4B38",
"A  c #5B4036",
"S  c #5F4339",
"D  c #624237",
"F  c #644439",
"G  c #69473B",
"H  c #6C4A3E",
"J  c #1E3C4C",
"K  c #293C4E",
"L  c #234556",
"P  c #2B4055",
"I  c #224E65",
"U  c #6F4C40",
"Y  c #714E41",
"T  c #745144",
"R  c #785447",
"E  c #795548",
"W  c #3C8A3F",
"Q  c #608834",
"!  c #6B9537",
"~  c #6B9639",
"^  c #6D9A3B",
"/  c #709E3C",
"(  c #7BAA3F",
")  c #429945",
"_  c #4BAE4F",
"`  c #5CB44E",
"'  c #4CAF50",
"]  c #4EB452",
"[  c #51BA55",
"{  c #74AA42",
"}  c #7BAC41",
"|  c #63B64D",
" . c #7EB143",
".. c #7EBE4B",
"X. c #5ACF5E",
"o. c #5BD05F",
"O. c #7FC04B",
"+. c #5DD461",
"@. c #5FD963",
"#. c #61DE65",
"$. c #82BE49",
"%. c #88BF48",
"&. c #83C04A",
"*. c #8BC34A",
"=. c #0575A8",
"-. c #1A76BF",
";. c #1A76C0",
":. c #1A78C3",
">. c #0293A4",
",. c #0196A9",
"<. c #0198AB",
"1. c #0080BB",
"2. c #00A0B6",
"3. c #00A4BB",
"4. c #0386C1",
"5. c #0389C4",
"6. c #0B8EC9",
"7. c #1C82D5",
"8. c #1C86D9",
"9. c #1F8BDB",
"0. c #0193D6",
"q. c #0896D7",
"w. c #0195DA",
"e. c #0599DC",
"r. c #0898D9",
"t. c #2081C8",
"y. c #2289DA",
"u. c #00BBD3",
"i. c #00BCD3",
"p. c #00B9D7",
"a. c #00BCD4",
"s. c #00B7DA",
"d. c #00B9DB",
"f. c #1D97F3",
"g. c #1C99F3",
"h. c #2196F3",
"j. c #2198F6",
"k. c #02ADED",
"l. c #02A7F1",
"z. c #05A6F3",
"x. c #09A4F3",
"c. c #02ABF0",
"v. c #03A8F4",
"b. c #03AAF5",
/* pixels */
"a.a.a.a.a.a.a.a.a.a.u.a.u.3.2.2.2.2.3.u.u.3.>., + + + + + + + + + + + + + + + , >.>., + + + , >.3.u.a.u.a.a.a.a.a.a.a.a.a.a.a.a.",
"a.a.a.a.a.a.a.a.a.u.a.u.<.d r r r r d ,.,.d y ^ } } } } } } } } } } } } } } } ^ y ; ~ } } } ^ y d <.u.a.u.a.a.a.a.a.a.a.a.a.a.a.",
"a.a.a.a.a.a.a.a.u.a.u.<.Z ^ ( ( ( ( ^ y ; ~ } *.*.*.*.*.*.*.*.*.*.*.*.*.&.*.*.*.^ 4 } *.*.*.*.} ^ Z <.u.a.a.a.a.a.a.a.a.a.a.a.a.",
"a.a.a.a.a.a.a.u.a.u.,.s ^ *.*.*.*.*.*.^ 4 } *.*.*.*.*.*.*.*.*.*.*.*.*.&.| ..&.*.*. .%.*.*.*.*.*.*.^ d 3.a.a.a.a.a.a.a.a.a.a.a.a.",
"a.a.a.a.a.a.a.a.u.<.s > } *.*.*.*.*.*.*. .%.*.*.*.*.*.&.&.&.&.&.*.*.*.*...` ` ..&.*.*.*.*.*.*.*.*.( r 3.a.a.a.a.a.a.a.a.a.a.a.a.",
"a.a.a.a.a.a.u.a.3.d ~ } *.*.*.*.*.*.*.*.*.*.*.*.*.*...` ` ` ` ` ..&.*.*.*.&...` ` ..&.*.*.&.&.&.*.( r 3.a.a.a.a.a.a.a.a.a.a.a.a.",
"a.a.a.a.a.a.a.u.,.y } *.*.*.*.*.*.&.&.&.*.*.*.*.*...| ..&.&.&...` ` ..*.*.*.*.&...` ` ....` ` | &.( r 3.a.a.a.a.a.a.a.a.a.a.a.a.",
"a.a.a.a.a.a.a.3.d ^ *.*.&.&.&.&...` ` ` ..*.*.*...| ..*.*.*.*.*.&...` ..*.*.*.*.*...` ` | ..&.&.*.~ q 3.a.u.a.a.a.a.a.a.a.a.a.a.",
"a.a.a.a.a.a.a.3.r ( *.&.| ` ` ` ` ..&...| &.*...| ..*.*.*.*.*.*.*.&.` ` ..&.*.*.*.*.&.&.&.*.*.*./ 4 , ,.u.a.u.a.a.a.a.a.a.a.a.a.",
"a.a.a.a.a.a.a.3.r ( *.*.&.&.&.&.&.*.*.*.&.*.&.| ..&.&.&.&.&.&.&.*.*.&...` | &.*.*.*.*.*.*.*.*. .N ~ Q V <.u.a.a.a.a.a.a.a.a.a.a.",
"a.a.a.a.a.a.a.3.r ( *.*.*.*.*.&.&.*.*.*.*.*.*.&.&.` ` ` ` ` ` ` ..&.*.*.&.&.*.*.*.*.*.*.*.*.*.%. .} B Q d 3.a.u.a.i.i.i.i.i.u.u.",
"a.a.a.a.a.a.a.3.r ( *.*.*.*.&.| ` ..*.*.*.*.*.*...` ..&.&.&.&...` ` ..*.*.*.*.*.*.*.*.*.*.*.*.*.*.%. .( y ,.u.a.i.p.p.p.p.p.p.p.",
"a.a.a.a.a.a.a.3.d ^ *.*.*.*.} { ..| ..*.*.*.*.&.| ..*.*.*.*.*.*.&...| ..*.*.*.*.&.&.&.&.&.&.&.&.&.*.*.*.^ d 3.a.p.s.k.c.c.c.c.c.",
"a.i.i.i.i.i.i.u.<.Z ^ } } ^ 4 M  .O.` &.*.*.*.*.&.*.*.*.*.*.*.*.*.*...| ..*.*...` ` ` ` ` ` ` ` | &.*.*.} r 3.d.k.c.c.b.b.b.b.b.",
"i.p.p.p.p.p.p.a.u.,., - 3 4 ^ } $...` &.*.*.*.*.*.*.*.&.&.&.&.&.&.&.*...| &.&.| ..&.&.&.&.&.&.&.&.*.*.} ~ f 0.c.c.b.b.b.b.b.b.b.",
"p.s.k.c.c.c.k.s.a.3.q ! } } *.&.| ` ..&.&.&.&.&.&.&...` ` ` ` ` ` ` ..*.&.*.*.&.*.*.*.*.*.*.*.*.*.*.^ y f 5.c.b.b.b.b.b.b.b.b.b.",
"c.c.c.b.b.b.c.k.d.3.r ( *.*.*.*.&.&.&.| ` ` ` ` ` ` | O.&.&.&.&.&...| &.*.*.*.*.*.*.*.*.*.*.*.*.*.^ C 4.w.l.b.l.b.b.b.b.b.b.b.b.",
"b.b.b.b.b.b.b.c.c.0.r ( *.*.*.*.*.*.*.&.&.&.&.&.&.&.$.} } *.*.*.*.*.$. .*.*.*.*.*.%. .*.*.*.} } ^ C 5.c.b.b.l.b.b.c.b.b.b.b.c.b.",
"b.b.b.b.b.b.b.b.b.w.f ^ *.*.*.*.*.*.*.*.*.*.*.*.*.} ^ y > } *.*.*.*.} M } *.*.*.*.} 4 ! ( ^ y & f 5.c.b.c.b.b.b.b.b.b.b.b.b.b.b.",
"b.b.b.b.b.b.b.b.b.l.5.C ^ *.*.*.*.*.*.*.*.} ( ( ^ y f =.0 ^ *.*.*.*.} 3 } *.*.*.*.^ w 0 r f =.J 4.l.b.c.b.b.b.b.b.b.b.b.b.b.b.b.",
"b.b.b.b.b.b.b.b.c.b.c.5.C ^ ( ( ( ( ( ( ^ y r r f 4.e.0.$ 3 ^ } } } ~ - ~ ( ( ( ^ C 4.0.0.w.q.L r.b.c.b.c.b.b.b.b.b.b.b.b.b.b.b.",
"b.b.b.b.b.b.b.b.b.c.b.c.5.f r r r r r r f 4.0.0.w.l.b.0.5 c 2 @ @ @ @ X + w r r f 5.c.b.b.b.r.L r.b.b.b.b.b.b.b.b.b.b.b.b.b.b.b.",
"b.b.b.b.b.b.b.b.b.b.c.b.l.w.0.0.0.0.0.0.w.l.b.b.b.b.b.0.5 G G k j k F A 5 1.0.0.w.l.b.c.b.b.r.L r.b.b.b.b.b.b.b.b.b.b.c.c.b.b.b.",
"b.b.b.b.b.b.b.b.b.b.b.c.b.b.b.b.b.b.b.b.b.b.c.b.b.c.b.0.5 G Y n G v T G 5 0.b.b.b.b.c.b.b.b.r.L r.b.c.b.b.b.b.b.b.b.b.b.b.b.b.b.",
"b.b.b.b.b.b.b.b.b.b.b.b.b.b.b.b.b.b.b.b.b.b.b.b.b.b.l.4.t D v Y Y v Y G 5 0.b.b.b.b.b.b.b.b.e.I 6.l.b.b.b.b.b.b.b.b.b.b.b.b.b.b.",
"b.b.b.b.b.b.b.b.b.b.b.b.b.b.b.b.b.b.b.b.b.b.b.b.b.b.w.i A x v Y n G n F 5 0.b.b.b.b.b.b.b.b.l.6.I e.b.b.b.b.b.b.b.b.b.b.b.b.b.b.",
"b.b.b.b.b.b.b.b.b.c.b.b.b.b.c.b.b.b.b.c.b.b.b.b.b.b.0.5 F v Y Y x H n D 5 0.b.c.b.b.b.b.b.c.b.r.L r.b.b.b.b.b.b.b.b.b.b.b.b.b.b.",
"b.b.b.c.b.b.c.b.b.b.b.b.b.b.b.b.b.b.b.b.b.b.b.b.b.b.0.5 F v T D = S Y l 7 4.l.b.b.b.b.b.b.b.b.r.L r.b.b.b.b.b.b.b.c.b.b.c.b.b.b.",
"b.b.b.b.b.b.b.b.b.b.b.b.b.b.b.c.b.b.c.b.b.b.b.b.b.b.0.5 F v n O   O n x n i w.b.b.b.b.b.b.b.b.r.L r.b.b.b.b.b.b.b.b.b.b.b.b.b.b.",
"b.b.b.b.b.b.b.b.b.b.b.b.b.b.b.b.b.b.b.b.b.b.b.b.b.b.0.5 F l X       X l F 5 0.b.b.b.b.b.b.b.b.r.L r.b.b.b.b.b.b.b.b.b.b.b.b.b.b.",
"b.c.b.b.b.b.b.b.c.b.b.b.b.b.b.b.b.b.b.b.b.b.b.b.b.b.0.5 F k .       . k F 5 0.b.b.b.b.b.b.b.b.r.L r.b.b.b.b.b.b.b.b.b.b.b.b.b.b.",
"b.b.b.b.b.c.b.b.b.b.b.b.b.b.b.b.b.b.b.b.b.b.b.b.b.b.0.5 F k .       . k D 5 0.b.b.b.b.b.b.b.b.r.L r.b.c.b.b.b.b.b.b.b.b.b.b.b.b.",
"b.b.b.b.b.b.b.b.b.b.b.b.b.c.b.b.b.b.b.b.b.b.b.b.b.b.0.5 F k .       . k k 5 0.b.c.b.b.b.b.b.b.r.L r.b.b.b.b.b.b.b.b.b.b.b.b.b.b.",
"b.b.b.b.b.b.b.b.b.b.b.b.b.b.b.b.b.b.b.b.b.b.c.b.b.b.0.5 F l X       X D k 7 4.l.b.b.b.b.b.b.b.r.L r.b.b.b.b.c.z.z.z.z.z.z.z.z.c.",
"c.b.b.b.b.b.b.b.b.b.b.b.b.b.b.b.b.b.b.b.b.b.b.b.b.b.0.5 F v n X   X j H v n i w.b.b.b.b.b.b.b.r.L r.b.z.z.z.x.g.f.f.f.f.f.f.g.z.",
"b.b.b.b.b.b.b.b.b.b.b.b.b.b.b.b.b.b.b.b.b.b.b.b.b.b.0.5 F v H j * b v H v F 5 0.b.b.b.b.b.b.b.r.I 6.x.g.f.f.f.h.h.h.h.h.h.h.f.x.",
"b.b.b.b.c.z.z.z.z.z.z.z.z.l.b.b.b.b.b.b.b.b.b.b.b.b.0.5 F v H v F v Y Y v F 5 0.b.b.b.b.b.c.z.x.t.I 9.h.h.h.h.h.h.h.h.h.h.h.h.f.",
"b.l.z.z.x.g.f.f.f.f.f.f.g.x.z.c.b.b.b.b.b.b.b.b.c.b.0.5 F v H v H v T T n F 5 0.b.b.c.z.z.x.g.g.y.P y.h.h.h.h.h.h.h.h.h.h.h.h.h.",
"z.x.g.f.f.h.h.h.h.h.h.h.h.f.g.x.z.z.c.b.b.b.b.b.b.l.4.t D n H v H v T R Y G 5 0.b.z.x.g.f.f.h.8.-.K -.8.h.h.h.h.h.h.h.h.h.h.h.h.",
"f.f.h.h.h.h.h.h.h.h.h.h.h.h.h.f.f.g.x.z.l.b.b.b.b.w.i A v Y Y v H v Y T m F t 4.x.g.f.h.h.h.:.9 % g % 9 :.h.h.h.h.h.h.h.h.h.h.h.",
"h.h.h.h.h.h.h.h.h.h.h.h.h.h.h.h.h.h.f.g.x.z.z.c.b.0.5 F v T T v H v v T Y v A p 8.h.h.h.h.:.6   . = .   6 :.h.h.h.h.h.h.h.h.h.h.",
"h.h.h.h.h.h.h.h.h.h.h.h.h.h.h.h.h.h.h.h.f.f.g.x.z.0.5 F v Y Y n T Y v T T v F 7 7.h.h.h.:.6     % h %     6 :.h.h.h.h.h.h.h.h.h.",
"h.h.h.h.h.h.h.h.h.h.h.h.h.h.h.h.h.h.h.h.h.h.h.f.g.7.7 F v H n U T Y v T T n D 7 7.h.h.8.9     6 ;.y.;.6     9 8.h.h.h.h.h.h.h.h.",
"h.h.h.h.h.h.h.h.h.h.h.h.h.h.h.h.h.h.h.h.h.h.h.h.h.7.7 F v H v H n H v T E Y l 5 7.h.h.7.$   # -.h.h.h.-.#   $ 7.h.h.h.h.h.h.h.h.",
"h.h.h.h.h.h.h.h.h.h.h.h.h.h.h.h.h.h.h.h.h.h.h.h.h.7.7 F v H v H v H v U E T k 7 ;.h.h.7.$   $ 8.h.h.h.8.$   $ 7.h.h.h.h.h.h.h.h.",
"h.h.h.h.h.h.h.h.h.h.h.h.h.h.h.h.h.h.h.h.h.h.h.h.h.;.e F v H v H v H v v T T v n p 8.j.7.$   # -.h.h.h.-.#   $ 7.h.h.h.h.h.h.h.h.",
"h.h.h.h.h.h.h.h.h.h.h.h.h.h.h.h.h.h.h.h.h.h.h.h.8.p S Y v H v H v Y Y v T T n D e -.h.8.9     6 -.8.-.6     9 8.h.h.h.h.h.h.h.h.",
"h.h.h.h.h.h.h.h.h.h.h.h.h.h.h.h.h.h.h.h.h.h.h.h.-.e H T v H v H v T T v T E Y v n p 8.h.:.6     # $ #     6 :.h.h.h.h.h.h.h.h.h.",
"h.h.h.h.h.h.h.h.h.h.h.h.h.h.h.h.h.h.h.h.h.h.h.8.p S R Y v G v H v T T n Y E T v F e -.h.h.:.6           6 :.h.h.h.h.h.h.h.h.h.h.",
"h.h.h.h.h.h.h.h.h.h.h.h.h.h.h.h.h.h.h.h.h.h.h.-.e H Y n H v v U v U R Y v T T n H F a :.h.h.:.9 $ $ $ 9 :.h.h.h.h.h.h.h.h.h.h.h.",
"h.h.h.h.h.h.h.h.h.h.h.h.h.h.h.h.h.h.h.h.h.8.-.a F T v Y T v U Y v v T T v Y R Y n Y F a :.h.h.8.7.7.7.8.h.h.h.h.h.h.h.h.h.h.h.h.",
"h.h.h.h.h.h.h.h.h.h.h.h.h.h.h.h.h.h.h.8.-.p e F R Y n T T n H m H v T R Y n Y R Y n T S p 8.h.h.h.h.h.h.h.h.h.h.h.h.h.h.h.h.h.h.",
"h.h.h.h.h.h.h.h.h.h.h.h.h.h.h.h.h.8.;.p e F H R Y n D G G D x D F z T E E Y n Y Y v Y H e -.h.h.h.h.h.h.h.h.h.h.h.h.h.h.h.h.h.h.",
"7.7.7.7.7.7.7.7.7.7.7.7.7.7.7.7.-.9 % b n G G F x b 1 & & & + & & : S G G G Y n n G n U F a -.8.h.h.h.h.h.h.h.h.h.h.h.h.h.h.h.h.",
"0 0 0 0 0 0 0 0 0 0 0 0 0 0 0 0 0 o o & : & & & + < W ) ) ) ) ) ) W < & & 1 S F D n G m T F 8 9 -.7.7.7.7.7.7.7.7.7.7.7.7.7.7.7.",
") ) ) ) ) ) ) ) ) ) ) ) ) ) ) ) ) ) ) ) ) ) ) ) ) ) _ ] ] ' ' ' ] _ ) ) ) W < & 1 b x D G G c & 0 0 0 0 0 0 0 0 0 0 0 0 0 0 0 0 ",
"] ] ] ] ] ] ] ] ] ] ] ] ' ] ] ] ] ] ] ' ' ' ] ] ] ] ] ' ' ] ] ] ] ] ] ] ] ] ) ) W < + & & & < W ) ) ) ) ) ) ) ) ) ) ) ) ) ) ) ) ",
"' ' ' _ _ ' ] ] [ +.] ' ] [ +.+.] _ ' ] ] ] [ +.@.@.+.] ] @.@.@.@.+.] _ ] +.] ] _ ) ) ) ) ) ) _ ] ] ] ] ] ] ] ] ] ] ] ] ] ] ] ] ",
"' _ _ ' ] [ o.[ +.@.[ [ +.+.[ ] ] ' ] @.@.@.+.[ ] ] ] ' ] +.[ ] [ [ ] ] [ +.] _ ' ] ] ' ' ' ' _ _ ' [ @.+.] ] X.[ ' _ ] +.+.] _ ",
"_ ' ] [ +.+.[ +.[ [ +.+.[ ] ' ] X.] ] +.[ ] ] ' _ _ _ _ ] [ ] [ +.@.@.@.+.[ ' _ _ ' ] ] ] ] ] ] ] [ +.@.[ ' ' [ X.[ ] ] [ [ ] _ ",
"_ ] +.+.[ ] ] +.] ' ] ] ' _ _ ' ] ' ' ] ' _ _ _ ' ' ' _ ] +.@.+.[ ] ] ] ] ' _ ' _ ] +.@.@.@.@.@.@.+.[ ] ' _ _ ' [ +.@.@.@.+.] _ ",
"_ ' ] ] ' _ ' ] ' _ _ _ _ ' ' _ _ _ _ _ _ ' ' ' ' _ _ _ ' ] ] ] ' _ _ _ _ _ _ _ _ ' ] ] ] ] ] ] ] ] ' _ _ ' ' _ ' ] ] ] ] ] ' _ ",
"' _ _ _ _ ' _ _ _ ' ' ' ' ' ' ' ' ' ' ' ' ' ' ' _ ' ] ] ] ] ] ] ] ] ] ] ] ] ] ] ] ] ] ] ] ] ' _ _ _ _ ' ' ' ' ' _ _ _ _ _ _ _ ' ",
"' ' ' ' ' ' ' ' ' ' ' ' ' ' ' ' ' ' ' ' ' ' ' ' _ ] @.#.#.#.#.#.#.#.#.#.#.#.#.#.#.#.#.#.#.@.] _ ' ' ' ' ' ' ' ' ' ' ' ' ' ' ' ' "
};
