/* XPM */
static char *_d210b1a82bb4180e34d425ecae31d4909WnFnNQZ33FmtZH[] = {
/* columns rows colors chars-per-pixel */
"64 64 195 2 ",
"   c #0C0E0E",
".  c #0E1010",
"X  c #111313",
"o  c #1C1916",
"O  c #151918",
"+  c #181B19",
"@  c #33190F",
"#  c #3A1C0F",
"$  c #241F18",
"%  c #341B11",
"&  c #3C1E11",
"*  c #2F2F0F",
"=  c #332E0D",
"-  c #29310D",
";  c #21211B",
":  c #362217",
">  c #3B2215",
",  c #3C261E",
"<  c #3D2A1B",
"1  c #2D3412",
"2  c #313414",
"3  c #333E12",
"4  c #323B1B",
"5  c #152334",
"6  c #182636",
"7  c #15263B",
"8  c #17283E",
"9  c #1A293D",
"0  c #262621",
"q  c #2B2820",
"w  c #3D2720",
"e  c #3D2821",
"r  c #383F21",
"t  c #31302D",
"y  c #262F39",
"u  c #422616",
"i  c #442817",
"p  c #422718",
"a  c #442C1C",
"s  c #5D2F12",
"d  c #4B3418",
"f  c #5D3417",
"g  c #52351C",
"h  c #642F13",
"j  c #603013",
"k  c #6D1938",
"l  c #493322",
"z  c #48352C",
"x  c #563726",
"c  c #593522",
"v  c #563E24",
"b  c #593E25",
"n  c #6E2239",
"m  c #72263A",
"M  c #344114",
"N  c #3A451B",
"B  c #3C481C",
"V  c #424C23",
"C  c #5C4227",
"Z  c #594229",
"A  c #454636",
"S  c #4D4734",
"D  c #4F4936",
"F  c #4E4D3A",
"G  c #524933",
"H  c #554D39",
"J  c #4E5234",
"K  c #4F513E",
"L  c #51533F",
"P  c #5A533D",
"I  c #565A3F",
"U  c #595B3F",
"Y  c #654324",
"T  c #6E483F",
"R  c #1B2C41",
"E  c #223145",
"W  c #283649",
"Q  c #323C4D",
"!  c #273A51",
"~  c #2D3D52",
"^  c #303F53",
"/  c #4F254C",
"(  c #4E2755",
")  c #503456",
"_  c #354254",
"`  c #364861",
"'  c #434348",
"]  c #4A4649",
"[  c #535540",
"{  c #5C5640",
"}  c #575943",
"|  c #5D5C45",
" . c #4D5A5A",
".. c #724C45",
"X. c #615E46",
"o. c #655949",
"O. c #635E4B",
"+. c #735544",
"@. c #5D6046",
"#. c #5F6248",
"$. c #626047",
"%. c #64664E",
"&. c #6B644C",
"*. c #67694F",
"=. c #696A4F",
"-. c #7E7245",
";. c #666850",
":. c #6A6C53",
">. c #656C5F",
",. c #726C53",
"<. c #6D7056",
"1. c #777955",
"2. c #72745B",
"3. c #76785E",
"4. c #404E63",
"5. c #4E5666",
"6. c #6E6363",
"7. c #6C7363",
"8. c #79756A",
"9. c #6F6D74",
"0. c #776E70",
"q. c #787478",
"w. c #895539",
"e. c #905A3E",
"r. c #8B5B40",
"t. c #877F5F",
"y. c #A97D5B",
"u. c #847D7D",
"i. c #7F8266",
"p. c #868A5B",
"a. c #898A59",
"s. c #8D915F",
"d. c #B0824C",
"f. c #B58355",
"g. c #838568",
"h. c #8E9260",
"j. c #979B6B",
"k. c #868B74",
"l. c #908C7A",
"z. c #95957B",
"x. c #A68366",
"c. c #A1856B",
"v. c #B68F6F",
"b. c #A98A73",
"n. c #B19079",
"m. c #9FA574",
"M. c #A6AD77",
"N. c #ABB173",
"B. c #B3BA76",
"V. c #CF9157",
"C. c #DAB24B",
"Z. c #CD9A66",
"A. c #D09D6C",
"S. c #C29B79",
"D. c #CEA071",
"F. c #D6A77F",
"G. c #E1AD7E",
"H. c #C4CA77",
"J. c #D8DB75",
"K. c #D4DE7A",
"L. c #DCE17E",
"P. c #7D7D86",
"I. c #877F83",
"U. c #7D92A9",
"Y. c #7B92B2",
"T. c #878083",
"R. c #8A8587",
"E. c #9A9E8B",
"W. c #A29981",
"Q. c #A7A98B",
"!. c #A7A88C",
"~. c #B3AFB0",
"^. c #B4B1B2",
"/. c #BFBBB9",
"(. c #BCB9BB",
"). c #DEAE82",
"_. c #D0B182",
"`. c #DCB294",
"'. c #E1AD85",
"]. c #C1BBAA",
"[. c #C5BEB9",
"{. c #BFC0B3",
"}. c #E7C182",
"|. c #C6C7AD",
" X c #D6D9AA",
".X c #D8D8AA",
"XX c #DACBB8",
"oX c #D8D2BE",
"OX c #DDE1AC",
"+X c #D2D2C7",
"@X c #DDD7C4",
"#X c #DBDDC5",
"$X c #D6D6CA",
"%X c #DADBCB",
"&X c #E4CFCC",
/* pixels */
"[ [ [ [ [ [ [ [ [ [ [ [ [ [ [ [ [ [ [ [ [ [ [ [ [ [ [ [ [ [ [ [ [ [ [ [ [ [ [ [ [ [ [ [ [ [ [ [ [ [ [ [ [ [ [ [ [ [ [ [ [ [ [ [ ",
"[ [ [ [ [ [ [ [ [ [ [ [ [ [ [ [ [ [ [ [ [ [ [ [ [ [ [ [ [ [ [ [ [ [ [ [ [ [ [ [ [ [ [ [ [ [ [ [ [ [ [ [ [ [ [ [ [ [ [ [ [ [ [ [ ",
"L L L L L L L L L L L L L L L L L L L L L L L L L L L L L L L L L L L L L L L L L L L L L L L L L L L L L L L L L L L L L L L L ",
"[ [ [ [ [ [ [ [ [ [ [ [ [ [ [ [ [ [ [ [ [ [ [ [ [ [ [ [ [ [ [ [ [ [ [ [ [ [ [ [ [ [ [ [ [ [ [ [ [ [ [ [ [ [ [ [ [ [ [ [ [ [ [ [ ",
"%.%.%.%.%.%.;.%.%.%.%.%.%.%.%.%.%.%.%.%.%.%.%.%.%.%.%.%.%.%.%.%.%.%.%.%.%.%.%.%.%.%.%.%.%.%.%.%.%.%.%.%.%.%.%.%.%.%.%.%.%.%.%.%.",
"%.%.%.;.:.%.;.%.%.%.%.%.%.%.%.%.%.%.%.%.%.%.%.%.%.%.%.%.%.%.%.%.%.%.%.%.%.%.%.%.%.%.%.%.%.%.&.%.%.%.%.%.%.%.%.%.%.%.%.%.%.%.%.%.",
"%.%.%.:.*.;.2.;.:.;.%.%.%.%.%.%.%.%.%.%.%.%.%.%.%.%.%.%.%.%.%.%.%.%.%.%.%.%.%.%.%.%.%.%.%.&.r.+.O.%.%.%.%.%.%.%.%.%.%.%.%.%.%.%.",
"%.%.%.%.;.2.3.2.;.:.%.%.%.%.%.%.%.%.%.%.%.%.%.%.%.%.%.%.%.%.%.%.%.@.| | @.%.%.%.%.%.%.%.%.&.e...) O.%.%.%.%.%.%.%.%.%.%.%.%.%.%.",
"%.%.%.%.2.3.3.3.2.:.%.%.%.%.%.%.%.%.%.%.%.%.%.%.%.%.%.%.%.%.%.%.@.4 4 1 B } %.%.%.%.%.%.%.&.e...( o.O.%.%.%.%.%.%.%.%.%.%.%.%.%.",
"%.%.%.%.;.2.3.2.;.%.%.%.%.%.%.%.%.%.%.%.%.%.%.%.%.%.%.%.%.%.%.%.| 4 G 2 - N | %.%.%.%.%.%.&.e...( n m O.%.%.%.%.%.%.%.%.%.%.%.%.",
"%.%.:.%.%.;.2.;.%.%.%.%.%.%.%.%.%.%.%.%.%.%.%.%.%.%.%.%.%.%.%.%.| 2 f j = * Y $.%.%.%.%.%.&.e...( k n O.%.%.%.%.%.%.%.%.%.%.%.%.",
"%.%.%.%.:.:.<.%.%.%.%.%.%.%.%.%.%.%.%.%.%.%.%.%.%.%.%.%.%.%.%.%.| 2 = h s 2 P X.X.X.X.X.X.X.w.T / k n O.%.%.%.%.%.%.%.%.%.%.%.%.",
"%.%.%.%.%.%.;.%.:.:.%.%.%.%.%.%.%.%.%.%.%.%.%.%.%.%.%.%.%.%.%.%.X.d * g d 1 v b v v v v v Z b b x c c X.%.%.%.%.%.%.%.%.%.%.%.%.",
"%.%.%.%.%.%.%.%.%.%.%.%.%.%.%.%.%.%.%.%.%.%.%.%.%.%.%.%.%.%.%.$.Z d 1 J 3 1 U X.X.X.X.X.X.X.X.X.$.X.v Z $.%.%.%.%.%.%.%.%.%.%.%.",
"%.%.%.%.%.%.%.%.%.%.%.%.%.%.%.%.%.%.%.%.%.%.%.%.%.%.%.%.%.%.%.%.} 2 1 M - 4 @.%.%.%.%.%.%.%.%.%.%.%.$.$.%.%.%.%.%.%.%.%.%.%.%.%.",
"%.%.%.%.%.%.%.%.%.%.%.%.%.%.%.%.%.%.%.%.%.%.%.%.%.%.%.%.%.%.%.%.| 4 L M 4 L | %.%.%.%.%.%.%.%.%.%.%.%.%.%.%.%.%.%.%.%.%.%.%.%.%.",
"%.%.%.%.%.%.%.%.%.%.%.%.%.%.%.%.%.%.%.%.%.%.%.%.%.%.%.%.%.%.%.%.| 4 J B J 4 4 | %.%.;.2.:.;.;.;.%.%.%.%.%.%.%.%.%.%.%.%.%.%.%.%.",
"%.%.%.%.%.%.%.%.%.%.%.%.%.%.%.%.%.%.%.%.%.%.%.%.%.%.%.%.%.%.%.%.@.4 4 3 4 L r | %.%.2.|.z.g.g.i.;.X.%.%.%.%.X.%.%.%.%.%.%.%.%.%.",
"%.%.%.%.%.%.%.%.%.%.%.%.%.%.%.%.%.%.%.%.%.%.%.%.%.%.%.%.%.%.%.%.%.@.I M 1 I @.%.%.%.;.8.g.<.g.2.X.l | %.%.| l | %.%.%.%.%.%.%.%.",
"%.%.%.%.%.%.%.%.%.%.%.%.%.%.%.%.%.%.%.%.%.%.%.%.%.%.%.%.%.%.%.%.%.%.} M 1 r #.%.%.%.;.i.7.>.7.i.$.a | %.%.| a | %.%.%.%.%.%.%.%.",
"%.%.%.%.%.%.%.%.%.%.%.%.%.%.%.%.%.%.%.%.%.%.%.%.%.%.%.%.%.%.%.%.%.@.B B } | %.%.%.%.;.k.U.Y.U.k.$.a P | | P a | %.%.%.%.%.%.%.%.",
"%.%.%.%.%.%.%.%.%.%.%.%.%.%.%.%.%.%.%.%.%.%.%.%.%.%.%.%.%.%.%.%.%.@.B U %.%.%.%.%.%.%.t.f.f.f.t.X.u u i i u u { %.%.%.%.%.%.%.%.",
"%.%.%.%.%.%.%.%.%.%.%.%.%.%.%.%.%.%.%.%.%.%.%.%.%.%.%.%.%.%.%.%.%.@.V @.%.%.%.%.%.X.b C Y Y Y C x u g g g g u x X.%.%.%.%.%.%.%.",
"%.%.%.%.%.%.%.%.%.%.%.%.%.%.%.%.%.%.%.%.%.%.%.%.%.%.} } } } %.%.%.%.#.%.%.%.%.%.$.Z v X.X.X.X.X.{ a P X.X.P u g Z $.%.%.%.%.%.%.",
"%.%.%.%.%.%.%.%.%.%.%.%.%.%.%.%.%.%.%.%.%.%.%.%.%.L O . . + [ | %.%.%.%.%.%.%.%.%.$.$.%.%.%.%.%.| p l $.$.l u { $.%.%.%.%.%.%.%.",
"%.%.%.%.%.%.%.%.%.%.%.%.%.%.%.%.%.%.%.%.%.%.%.%.L + 5 7 5 5 y + } %.%.%.%.%.%.%.%.%.%.%.%.%.%.%.| a { %.%.{ a $.%.%.*.%.%.%.%.%.",
"%.%.%.%.%.%.%.%.%.%.%.%.%.%.%.%.%.%.%.%.%.%.%.K + 9 ` ! E O A ; } %.%.%.%.%.%.%.%.%.%.%.%.%.%.%.| a P | X.X.a X.%.%.%.%.%.%.%.%.",
"%.%.%.%.%.%.%.%.%.%.%.%.%.%.%.%.%.%.%.%.%.%.X.q y 4.~ ! E X } | %.%.%.%.%.%.%.%.%.%.%.%.%.%.%.%.| p a a a a a ;.;.:.;.%.%.%.%.%.",
"%.%.%.%.%.%.%.%.%.%.%.%.%.%.%.%.%.%.%.%.%.,.c.b.n.b.5.` E . } %.%.%.%.%.%.%.%.%.%.%.%.%.%.%.%.%.X.a H | | H a :.2.;.:.%.%.%.%.%.",
"%.%.%.%.%.%.%.%.%.%.%.%.%.%.%.%.%.%.%.%.=.c.&X&XXX`.[.(._ . } %.%.%.%.%.%.%.%.%.%.%.%.%.%.%.%.%.X.p l $.$.l a ,.3.2.:.%.%.%.%.%.",
"%.%.%.%.%.%.%.%.%.%.%.%.%.%.%.%.%.%.%.%.;.x.'.F.-.d.-.S.] X } %.%.%.%.%.%.%.%.%.%.%.%.%.%.%.%.%.{ a H | | H a :.2.;.%.%.%.%.%.%.",
"%.%.%.%.%.%.%.%.%.%.%.%.=.=.=.=.=.=.=.%.:.W.).G.Z.V.D.).v.$ } %.%.%.%.%.%.%.%.%.%.%.%.%.%.%.%.| a u a a a u l :.;.%.%.%.%.%.%.%.",
"%.%.%.%.%.%.%.%.%.%.%.=.p.s.h.h.h.s.p.=.2.!..XXXA.Z.XX@X].0 } %.%.%.%.%.%.%.%.%.%.%.%.%.%.%.%.| a P | | P a X.:.%.%.%.%.%.%.%.%.",
"%.%.%.%.%.%.%.%.%.%.%.=.s.N.B.B.B.N.h.3.!. X#X%XoXoX%X%X{.0 [ %.%.%.%.%.%.%.%.%.%.%.%.%.%.%.%.| a P | | P a X.;.%.:.:.%.%.%.%.%.",
"%.%.%.%.%.%.%.%.%.%.%.=.h.B.K.J.K.B.j.Q. X#X%X%X%X%X%X%X{.0 } %.%.%.%.%.%.%.%.%.%.%.%.%.%.%.%.| p a a a a p | %.%.%.%.%.%.%.%.%.",
"%.%.%.%.%.%.%.%.%.%.%.*.s.B.J.C.J.M.Q. X#X%X%X%X%X%X%X%X(.t K $.%.%.%.%.%.%.%.%.%.%.%.%.%.%.%.| a P | | P a | %.%.%.%.%.%.%.%.%.",
"[ [ [ [ [ [ [ [ [ [ [ | s.B.K.}._. .E.OX#X%X%X%X%X%X%X+X~.0.; F [ [ [ [ [ [ [ [ [ [ [ [ [ [ [ H p D L L D p H [ [ [ [ [ [ [ [ [ ",
"L L L L L L L L L L L } s.B.K.L.H. .E.OX#X%X%X%X%X%X+X^.R.9.+ A [ L L L L L L L L L L L L L [ F u p p p p > F [ L L L L L L L L ",
"[ [ [ [ [ [ [ [ [ [ [ } s.N.B.B.B.m.!.OX#X%X%X%X%X+X^.P.^ R . A [ [ [ [ [ [ [ [ [ [ [ [ [ [ [ F p S F F S p F [ [ [ [ [ [ [ [ [ ",
"F F F F F F F F F F F L 1.a.a.a.a.a.!.OX#X%X%X%X+X^.P.~ 8 5   A F F F F F F F F F F F F F F F S p S F F S p S F F F F F F F F F ",
": : : : : : : : : : : : < < < < < G !.OX#X%X%X+X^.P.~ 8 8 6 o % : : : : : : : : : : : : : : : : & > > : : & : : : : : : : : : : ",
"% % % % % % % % % % % % % % % % z z. X#X$X$X+X^.P.~ 8 8 9 ' y.x % % % % % % % % % % % % % % % % # % % # # # % % % % % % % % % % ",
"% % % % % % % % % % % % % , e z l.|.[.(.(.(.^.P.~ R 8 8 W x.V.y.p @ % @ % % % % % % % % % % % % # % % % % # @ % % % % % % % % % ",
"% % % @ @ % @ % % % % @ , 6.0.0.u.T.T.I.T.T.q.Q 9 9 9 9 9 ' y.] % % % % % % % % % % % % % % % % # @ % % % # @ @ @ % % % % % % % ",
"% % % % @ % % @ @ % % % % , w , , w , , e w , % % % % % % % a % % % % % % % % % % % % @ @ @ % % @ @ @ % % % % % % % % % % % % % ",
"% % % % % % % % % % % % % % @ @ @ @ @ @ @ @ % % % % % % % % % % % % % % % % % % % % % % % % % % @ @ % % % % % % % % % % % % % % ",
"% % % % % % % % % % % % % % % % % @ % % % % % % % % % % % % % % % % % % % % % % % % % % % % % % % % % % % % % % % % % % % % % % ",
"% % % % % % % % % % % % % % % % % % % % % % % % % % % % % % % % % % % % % % % % % % % % % % % % % % % % % % % % % % % % % % % % ",
"% % % % % % % % % % % % % % % % % % % % % % @ % % % % % % % % % % % % % % % % % % % % % % % % % % % % % % % % % % % % % % % % % ",
"% % % % % % % % % % % % % % % % % % % % % % @ % % % % % % % % % % % % % % % % % % % % % % % % % % % % % % % % % % % % % % % % % ",
"% % % % % % % % % % % % % % % % % % % % % % % % % % % % % % % % % % % % % % % % % % % % % % % % % % % % % % % % % % % % % % % % ",
"% % % % % % % % % % % % % % % % % % % % % % % % % % % % % % % % % % % % % % % % % % % % % % % % % % % % % % % % % % % % % % % % ",
"% % % % % % % % % % % % % % % % % % % % % % % % % % % % % % % % % % % % % % % % % % % % % % % % % % % % % % % % % % % % % % % % ",
"% % % % % % % % % % % % % % % % % % % % % % % % % % % % % % % % % % % % % % % % % % % % % % % % % % % % % % % % % % % % % % % % ",
"% % % % % % % % % % % % % % % % % % % % % % % % % % % % % % % % % % % % % % % % % % % % % % % % % % % % % % % % % % % % % % % % ",
"% % % % % % % % % % % % % % % % % % % % % % % % % % % % % % % % % % % % % % % % % % % % % % % % % % % % % % % % % % % % % % % % ",
"% % % % % % % % % % % % % % % % % % % @ % % % % % % % % % % % % % % % % % % % % % % % % % % % % % % % % % % % % % % % % % % % % ",
"% % % % % % % % % % % % % % % % % % % % % % % % % % % % % % % % % % % % % % % % % % % % % % % % % % % % % % % % % % % % % % % % ",
"% % % % % % % % % % % % % % % % % % % % % % % % % % % % % % % % % % % % % % % % % % % % % % % % % % % % % % % % % % % % % % % % ",
"% % % % % % % % % % % % % % % % % % % % % % % % % % % % % % % % % % % % % % % % % % % % % % % % % % % % % % % % % % % % % % % % ",
"% % % % % % % % % % % % % % % % % % % % % % % % % % % % % % % % % % % % % % % % % % % % % % % % % % % % % % % % % % % % % % % % ",
"% % % % % % % % % % % % % % % % % % % % % % % % % % % % % % % % % % % % % % % % % % % % % % % % % % % % % % % % % % % % % % % % ",
"% % % % % % % % % % % % % % % % % % % % % % % % % % % % % % % % % % % % % % % % % % % % % % % % % % % % % % % % % % % % % % % % ",
"% % % % % % % % % % % % % % % % % % % % % % % % % % % % % % % % % % % % % % % % % % % % % % % % % % % % % % % % % % % % % % % % "
};
